<?xml version="1.0" encoding="UTF-8"?>
<svg id="Narrasea_4_SVG_Image" data-name="Narrasea 4 SVG Image" xmlns="http://www.w3.org/2000/svg" xmlns:xlink="http://www.w3.org/1999/xlink" viewBox="0 0 250.01 250.01">
  <defs>
    <style>
      .cls-1 {
        fill: url(#linear-gradient);
      }

      .cls-1, .cls-2, .cls-3, .cls-4 {
        stroke-width: 0px;
      }

      .cls-2 {
        fill: #4f46e4;
      }

      .cls-3 {
        fill: url(#linear-gradient-2);
      }

      .cls-4 {
        fill: #fcfcfc;
      }
    </style>
    <linearGradient id="linear-gradient" x1="121.96" y1="-12.18" x2="85.5" y2="216.93" gradientUnits="userSpaceOnUse">
      <stop offset="0" stop-color="#4f46e4"/>
      <stop offset=".24" stop-color="#5047e4"/>
      <stop offset=".32" stop-color="#554ee5"/>
      <stop offset=".39" stop-color="#5f5ae7"/>
      <stop offset=".43" stop-color="#6d6beb"/>
      <stop offset=".48" stop-color="#7e80ef"/>
      <stop offset=".48" stop-color="#8184f0"/>
    </linearGradient>
    <linearGradient id="linear-gradient-2" x1="183.36" y1="-4.67" x2="146.89" y2="224.43" gradientUnits="userSpaceOnUse">
      <stop offset="0" stop-color="#4f46e4"/>
      <stop offset=".24" stop-color="#5047e4"/>
      <stop offset=".32" stop-color="#554ee5"/>
      <stop offset=".39" stop-color="#5f5ae7"/>
      <stop offset=".43" stop-color="#6d6beb"/>
      <stop offset=".48" stop-color="#7e80ef"/>
      <stop offset=".48" stop-color="#8184f0"/>
    </linearGradient>
  </defs>
  <path class="cls-4" d="m0,250.01C0,166.67,0,83.34,0,0c83.34,0,166.67,0,250.01,0,0,83.34,0,166.67,0,250.01-83.34,0-166.67,0-250.01,0Z"/>
  <path class="cls-2" d="m113.03,168.53c-.39,1.19-1.03,2.27-1.63,3.36-2.73,4.91-6.02,9.38-10.09,13.28-2.58,2.47-5.6,4.17-8.86,5.5-4.28,1.75-8.74,2.91-13.26,3.83-2.94.59-5.89,1.1-8.88,1.38q-.61.06-.63-.58c0-.14,0-.28,0-.42,0-20.44-.02-40.88.01-61.33.01-8.92.14-17.83.21-26.75.05-5.39.16-10.78.13-16.16-.03-4.74.95-9.26,2.75-13.62,2.41-5.8,5.91-10.87,10.46-15.19,2.82-2.68,6.08-4.74,9.52-6.53,5.46-2.86,11.24-4.88,17.19-6.48,2.44-.65,4.9-1.22,7.38-1.69.1-.05.21-.1.3,0,.11.11.03.21-.05.27-.22.18-.49.25-.75.35-6,2.26-11.62,5.28-16.95,8.82-4.07,2.7-7.58,5.98-10.01,10.29-1.86,3.29-3.23,6.79-3.71,10.54-.33,2.59-.1,5.21.31,7.8.86,5.42,2.36,10.67,4.19,15.83,1.46,4.11,2.78,8.26,4.16,12.4,4.01,12.04,8.08,24.05,12.1,36.09,1.95,5.85,3.93,11.68,5.88,17.53.16.47.35.94.23,1.45Z"/>
  <path class="cls-2" d="m174.35,176.19c-.98,2.34-2.3,4.5-3.66,6.62-2.51,3.93-5.43,7.51-8.93,10.61-2.06,1.83-4.44,3.14-6.94,4.23-4.47,1.96-9.16,3.19-13.93,4.18-3.02.62-6.06,1.1-9.12,1.45-.67.08-.67.08-.67-.63,0-10.89-.02-21.77,0-32.66.02-15.8-.03-31.61.13-47.41.06-5.83.1-11.66.16-17.5.03-3,.04-6,.1-9,.07-3.25.78-6.39,1.86-9.44,2.59-7.33,6.79-13.58,12.7-18.64,3.25-2.78,6.96-4.86,10.83-6.65,6.53-3.02,13.38-5.08,20.41-6.54.57-.12,1.14-.23,1.71-.35.21-.09.43-.09.29.21-.1.23-.4.27-.64.35-4.69,1.63-9.06,3.94-13.34,6.42-2.74,1.59-5.38,3.33-7.8,5.39-3.64,3.11-6.39,6.85-8.11,11.32-.91,2.36-1.68,4.75-1.92,7.3-.17,1.84-.03,3.66.19,5.48.72,6.07,2.44,11.9,4.44,17.65,2.66,7.66,5.12,15.39,7.74,23.06,3.19,9.36,6.24,18.76,9.43,28.12,1.67,4.89,3.27,9.8,4.94,14.69.19.56.32,1.11.13,1.7Z"/>
  <path class="cls-1" d="m113.03,168.53c-1.73-5.23-3.46-10.46-5.24-15.68-1.62-4.74-3.18-9.5-4.77-14.25-1.14-3.41-2.25-6.84-3.42-10.24-3.05-8.88-5.94-17.8-8.95-26.69-.83-2.46-1.7-4.92-2.41-7.42-.68-2.39-1.24-4.81-1.71-7.25-.58-3.03-.81-6.09-.66-9.16.06-1.24.37-2.45.73-3.64.73-2.39,1.56-4.74,2.79-6.92.95-1.69,2.01-3.3,3.33-4.75.54-.59,1.06-1.21,1.64-1.77,2.12-2.04,4.45-3.82,6.94-5.38,3.01-1.88,6.12-3.59,9.3-5.16,2.11-1.04,4.27-1.99,6.49-2.76.13-.05.3-.05.38-.15.13-.16-.09-.1-.14-.16.42-.24.9-.25,1.36-.32.41-.06.56.12.53.51-.01.14,0,.28,0,.42-.03,25.64.09,51.27-.09,76.91-.04,6.11-.09,12.22-.15,18.33-.01,1.34-.29,2.65-.51,3.96-.74,4.54-1.6,9.07-2.79,13.52-.73,2.74-1.54,5.44-2.65,8.06Z"/>
  <path class="cls-3" d="m174.42,176.04c-1.73-5.23-3.46-10.46-5.24-15.68-1.62-4.74-3.18-9.5-4.77-14.25-1.14-3.41-2.25-6.84-3.42-10.24-3.05-8.88-5.94-17.8-8.95-26.69-.83-2.46-1.7-4.92-2.41-7.42-.68-2.39-1.24-4.81-1.71-7.25-.58-3.03-.81-6.09-.66-9.16.06-1.24.37-2.45.73-3.64.73-2.39,1.56-4.74,2.79-6.92.95-1.69,2.01-3.3,3.33-4.75.54-.59,1.06-1.21,1.64-1.77,2.12-2.04,4.45-3.82,6.94-5.38,3.01-1.88,6.12-3.59,9.3-5.16,2.11-1.04,4.27-1.99,6.49-2.76.13-.05.3-.05.38-.15.13-.16-.09-.1-.14-.16.42-.24.9-.25,1.36-.32.41-.06.56.12.53.51-.01.14,0,.28,0,.42-.03,25.64.09,51.27-.09,76.91-.04,6.11-.09,12.22-.15,18.33-.01,1.34-.29,2.65-.51,3.96-.74,4.54-1.6,9.07-2.79,13.52-.73,2.74-1.54,5.44-2.65,8.06Z"/>
</svg>