<?xml version="1.0" encoding="UTF-8"?>
<svg xmlns="http://www.w3.org/2000/svg" xmlns:xlink="http://www.w3.org/1999/xlink" viewBox="0 0 1387.23 297.39">
  <defs>
    <style>
      .cls-1 {
        fill: url(#linear-gradient);
      }

      .cls-1, .cls-2, .cls-3, .cls-4, .cls-5, .cls-6 {
        stroke-width: 0px;
      }

      .cls-2 {
        fill: #0a3054;
      }

      .cls-3 {
        fill: #082e53;
      }

      .cls-7 {
        isolation: isolate;
      }

      .cls-4 {
        fill: none;
      }

      .cls-5 {
        fill: #4f46e4;
      }

      .cls-6 {
        fill: url(#linear-gradient-2);
      }
    </style>
    <linearGradient id="linear-gradient" x1="99.37" y1="-112.11" x2="30.08" y2="323.25" gradientUnits="userSpaceOnUse">
      <stop offset="0" stop-color="#4f46e4"/>
      <stop offset=".24" stop-color="#5047e4"/>
      <stop offset=".32" stop-color="#554ee5"/>
      <stop offset=".39" stop-color="#5f5ae7"/>
      <stop offset=".43" stop-color="#6d6beb"/>
      <stop offset=".48" stop-color="#7e80ef"/>
      <stop offset=".48" stop-color="#8184f0"/>
    </linearGradient>
    <linearGradient id="linear-gradient-2" x1="216.04" y1="-97.84" x2="146.75" y2="337.51" xlink:href="#linear-gradient"/>
  </defs>
  <g id="Artboard_1" data-name="Artboard 1" class="cls-7">
    <g id="Group_1_Image" data-name="Group 1 Image">
      <g>
        <path class="cls-3" d="m268.47,163.11c0-18.15.06-36.31-.05-54.46-.02-3.57,1.04-6.41,3.38-9.05,4.1-4.63,8.63-8.75,13.42-12.63,3.07-2.48,5.85-2.59,8.91.02,4.56,3.89,9.31,7.62,12.89,12.46,2.07,2.81,3.2,3.59,5.98.39,17.33-19.87,64.01-19.44,79.62,6.84,6.49,10.94,8.01,22.78,8.09,34.99.15,24.98.07,49.96.03,74.94-.01,8.13-1.2,9.26-9.22,9.27-8.33.01-16.66.03-24.98,0-6.78-.02-8.23-1.43-8.24-8.18-.03-23.15,0-46.3-.02-69.45,0-2.16.04-4.35-.22-6.49-1.36-11.41-6.82-18.58-15.74-20.83-11.08-2.8-21.5.7-28.07,9.33-2.4,3.15-3.59,6.49-3.56,10.57.14,25.48.08,50.96.06,76.44,0,7.54-1.07,8.58-8.72,8.6-8.33.02-16.66.02-24.98,0-7.31-.02-8.59-1.33-8.59-8.82-.01-17.99,0-35.97,0-53.96Z"/>
        <path class="cls-3" d="m631.45,113.17c5.39-11.62,12.19-21.08,24.87-24.71,5.85-1.67,11.76-1.97,17.77-1.07,2.97.44,4.25,1.88,4.2,5-.13,9.82-.13,19.64,0,29.47.05,3.85-1.78,4.72-5.01,3.73-2.7-.83-5.35-1.75-8.22-1.94-20.98-1.39-33.5,11.36-33.77,34.85-.22,19.31-.04,38.62-.05,57.93,0,8.53-.93,9.46-9.4,9.47-8.66,0-17.32.07-25.97-.03-5.38-.06-6.76-1.52-6.76-6.91-.02-37.12,0-74.25-.06-111.37,0-2.83.73-5.15,2.54-7.3,4.19-5,8.98-9.35,14.12-13.34,3.36-2.6,6.64-2.73,9.93.11,1.39,1.2,2.83,2.32,4.22,3.51,6.89,5.89,14.05,11.64,11.57,22.6Z"/>
        <path class="cls-3" d="m740.88,112.79c1.43-2.76,2.73-5.59,4.3-8.26,7.65-13.02,21.7-19.64,36.4-17.45,3.92.58,5.75,2.03,5.59,6.41-.33,9.31-.24,18.65-.04,27.97.1,4.48-1.83,5.25-5.51,3.91-6.45-2.36-13.15-2.64-19.66-1.06-12.12,2.94-17.74,12.09-20.49,23.39-.94,3.85-1.3,7.84-1.28,11.88.1,18.65.05,37.29.04,55.94,0,9.46-.91,10.39-10.13,10.39-8.33,0-16.65.05-24.98-.02-5.67-.05-7.3-1.45-7.32-7.04-.08-37.13-.04-74.26-.03-111.38,0-2.57.76-4.83,2.47-6.86,4.31-5.12,9.16-9.64,14.45-13.72,3.41-2.62,6.68-2.54,9.92.25,1.89,1.63,3.79,3.25,5.71,4.84,6.49,5.39,12.17,11.17,10.53,20.82Z"/>
        <path class="cls-3" d="m1021.59,144.28c-19.51,2.39-38.16,4.71-55.94,11.3-2.94,1.09-4.24-.4-5.78-2.3-12.25-15.04-8.57-42.19,7.5-54.58,11.98-9.24,26.07-12.15,40.71-12.67,11.46-.4,22.97-.18,33.46,5.74,6.78,3.82,12.2,17.51,9.6,24.75-.11.31-.25.62-.42.9-2.59,4.33-18.81,7.29-22.75,4.01-7.78-6.48-16.59-6.97-25.9-4.7-4.18,1.02-7.3,3.32-7.81,7.94-.51,4.63,1.47,8.04,5.48,10.32,6.64,3.78,14.06,5.77,21.85,9.28Z"/>
        <path class="cls-3" d="m923.39,177.55c-.06,0-.11,0-.17,0,0-13.32.3-26.66-.06-39.97-.68-24.96-13.35-42.9-35.53-48.47-22.43-5.64-44.8-4.72-66.48,4.46-5.89,2.49-9.22,6.53-10.8,12.64-3.73,14.53-3.82,14.4,10.66,18.7,4.91,1.46,9.11,1.51,13.57-1.7,9.1-6.56,19.5-8.03,30.45-6.43,10.35,1.51,16.66,8.59,17.09,18.92.1,2.43-.69,3.09-3.06,3.15-5.15.12-10.3.49-15.44.95-15.31,1.39-30.25,4.1-44.21,11.08-29.22,14.61-26.04,57.78-5.96,70.84,10.52,6.84,21.91,8.18,33.91,7.3,10.66-.78,20.72-3.29,28.81-10.85,5.91-5.52,6.11-5.74,10.92,1.24,3.38,4.9,7.35,7.16,13.37,6.6,4.95-.46,9.99-.08,14.98-.1,6.56-.03,7.91-1.31,7.93-7.87.04-13.49.01-26.99.01-40.48Zm-75.02,19.68c-5.03-1.33-8.68-4.21-9.2-9.83-.64-6.94,1.04-12.94,7.43-16.72,8.31-4.92,17.62-5.53,24.25-5.9,10.87-.43,10.25-.37,11,7.77,1.5,16.21-14.67,29.64-33.49,24.68Z"/>
        <path class="cls-2" d="m553.23,128.87c-3.22-20.21-14.09-34.57-34.3-39.7-22.41-5.68-44.76-4.82-66.45,4.3-5.86,2.46-9.5,6.23-10.93,12.47-3.82,16.58-4.51,13.73,10.24,18.85,4.97,1.73,9.35,1.72,14.02-1.66,8.74-6.33,18.82-7.89,29.45-6.46,11,1.48,16.95,7.73,17.88,18.66.21,2.43-.03,3.52-2.95,3.53-5.14,0-10.3.46-15.43.92-15.13,1.36-29.88,4.09-43.75,10.82-29.69,14.39-26.59,57.4-6.99,70.73,10.54,7.17,22.09,8.57,34.28,7.7,10.65-.76,20.71-3.25,28.83-10.76,6-5.55,6.25-5.78,10.95,1,3.51,5.06,7.65,7.31,13.83,6.73,4.95-.47,9.98-.07,14.98-.1,6.26-.04,7.51-1.29,7.53-7.7.04-13.49.01-26.98.01-43.4-.65-13.35,1.38-29.73-1.2-45.93Zm-74.33,68.33c-5.05-1.47-8.31-4.57-8.83-10.15-.68-7.29,1.6-13.17,8.09-16.88,6.48-3.7,13.73-4.77,21.04-5.4,1.81-.16,3.65-.02,5.48-.02,8.6-.65,8.06-.61,8.72,7.79,1.22,15.42-14.61,30.45-34.5,24.67Z"/>
        <g>
          <path class="cls-4" d="m1121.26,142.93c6.65,0,13.3,0,19.95,0,6.82,0,13.64-.03,20.45,0,3.85.02,5.83-1.98,6.21-5.69.78-7.62-4.24-17.4-11.38-20.07-19.84-7.41-34.49.84-38.27,23.36-.46,2.75,1.38,2.41,3.03,2.41Z"/>
          <path class="cls-3" d="m1310.19,138.84c-5.15.1-10.3.5-15.43.94-14.31,1.22-28.39,3.54-41.53,9.7-8.93,4.19-16.27,10.16-20.86,20.09,13.43,1.67,26.19,2.82,38.98,3.48,1.12.06,2.54.06,3.36-.55,10.02-7.38,21.73-7.39,33.37-7.99,3.72-.19,5.29.83,4.66,4.64-.56,3.35.59,4.74,4.29,4.43,11.45-.96,22.88-1.96,34.22-3.88,1.87-.32,3.04-.78,2.97-3.05-.43-12.63,1.01-25.33-1.14-37.89-3.61-21.02-15.13-35.35-36.36-40.1-21.88-4.9-43.53-4.07-64.55,4.86-5.89,2.5-9.46,6.37-10.85,12.56-3.68,16.29-4.69,13.63,10.92,18.89,4.67,1.57,8.77,1.46,13.1-1.68,8.74-6.34,18.79-8,29.42-6.68,11.16,1.39,17.3,7.8,18.22,18.93.19,2.28-.19,3.25-2.78,3.3Z"/>
          <path class="cls-5" d="m1338.38,177.6c-41.37,4.99-82.48,1.47-123.49-4.23-41.21-5.72-81.75-15.56-123.18-20.09-29.72-3.25-59.36-5.47-89.13-.56-21.34,3.52-42.17,8.27-60.4,20.72-2.2,1.5-4.37,3.04-6.55,4.57,8.68-1.93,16.96-4.32,25.22-6.79,12.22-3.65,23.96-4.37,35.66,1.95,4.93,2.66,10.67,3.83,15.36,7.07,6.19,4.27,5.97,12.21-.46,16.06-1.96,1.17-4.23,2-6.47,2.5-12.92,2.87-24.37-.19-34.38-8.84-4.36-3.77-5.82-3.56-9.08,1.21-3.95,5.77-7.7,11.68-11.76,17.37-2.26,3.16-1.65,5.39,1.24,7.61,5.46,4.2,11.33,7.7,17.97,9.51,19.42,5.31,38.91,5.25,58.02-1.12,15.17-5.05,26.87-14.33,29.91-31.08,1.86-10.24,1.25-20.53-3.88-30.25,4.34-.71,8.1.19,11.87.4,11.09.62,10.85.69,12.38,11.49,3.41,23.95,15.91,40.71,39.16,48.97,15.44,5.49,31.34,5.63,47.36,4.7,11.94-.69,23.29-3.62,33.74-9.68,6.4-3.72,12.14-15.9,10.67-23.13-.19-.92-.7-1.88-1.34-2.58-5.15-5.68-19.51-7.64-25.99-3.35-13.03,8.64-27.11,10.59-42.01,6.6-9.64-2.58-16.35-8.68-19.33-18.42-2.36-7.71-2.31-7.77,5.59-7.52,2.82.09,5.65.31,8.44.74,30.6,4.72,60.86,11.42,91.58,15.44,3.67.48,3.9,2.35,4.04,5.33.83,18.4,11.89,31.66,29.87,35.73,9.21,2.09,18.51,1.67,27.76-.08,7.67-1.45,14.65-4.36,20.42-9.76,5.75-5.39,6.06-5.63,10.65,1.12,3.49,5.13,7.63,7.32,13.8,6.78,5.13-.45,10.32-.06,15.49-.1,5.51-.05,7-1.56,7.02-7.21.05-9,.23-18-.09-26.99-.13-3.83,1.01-5.44,4.74-6.56,10.06-3.03,24.58-12.53,28.41-18.04-16.06,5-32.32,8.53-48.85,10.52Zm-66.01,15.18c10.06.74,19.44,1.46,29.8.53-8.95,6.77-22.77,6.48-29.8-.53Z"/>
          <path class="cls-3" d="m1080.47,146.09c9.11.86,18.2,2.04,27.28,3.18,28.59,3.59,56.67,10.15,85.12,14.54,6.58,1.01,8.28.18,11.23-5.88.8-1.63,1.63-3.35,1.92-5.12,3.38-20.77-1.07-39.09-17.6-53.18-12.57-10.72-27.84-13.49-45.48-13.76-1.99.16-5.64.42-9.27.78-30.43,2.98-52.92,25.18-56.38,55.47-.31,2.75.26,3.7,3.18,3.97Zm37.76-5.58c3.78-22.52,18.43-30.77,38.27-23.36,7.15,2.67,12.16,12.45,11.38,20.07-.38,3.7-2.35,5.7-6.21,5.69-6.82-.03-13.64,0-20.45,0-6.65,0-13.3,0-19.95,0-1.66,0-3.49.34-3.03-2.41Z"/>
        </g>
      </g>
      <g>
        <path class="cls-5" d="m82.39,231.29c-.74,2.27-1.95,4.32-3.11,6.39-5.19,9.32-11.44,17.83-19.17,25.24-4.89,4.69-10.64,7.91-16.84,10.45-8.14,3.33-16.6,5.54-25.2,7.27-5.58,1.12-11.2,2.08-16.88,2.62q-1.17.11-1.19-1.1c0-.26,0-.53,0-.79,0-38.85-.04-77.69.02-116.54.03-16.94.26-33.88.4-50.82.09-10.24.3-20.48.24-30.71-.05-9.02,1.8-17.6,5.23-25.87,4.57-11.02,11.22-20.65,19.87-28.86,5.36-5.09,11.56-9,18.09-12.41,10.38-5.43,21.37-9.28,32.66-12.3,4.64-1.24,9.31-2.33,14.03-3.2.19-.1.39-.19.57,0,.2.21.05.39-.1.52-.41.35-.93.48-1.42.67-11.41,4.3-22.08,10.04-32.22,16.77-7.73,5.13-14.41,11.37-19.03,19.55-3.53,6.26-6.14,12.9-7.04,20.04-.62,4.91-.18,9.89.6,14.81,1.63,10.31,4.49,20.27,7.97,30.09,2.77,7.81,5.28,15.7,7.9,23.56,7.62,22.88,15.36,45.71,22.99,68.58,3.71,11.11,7.46,22.2,11.18,33.31.3.89.67,1.78.45,2.76Z"/>
        <path class="cls-5" d="m198.92,245.83c-1.87,4.44-4.37,8.54-6.95,12.59-4.77,7.46-10.33,14.27-16.97,20.16-3.92,3.48-8.43,5.96-13.19,8.04-8.5,3.72-17.41,6.07-26.47,7.94-5.73,1.19-11.51,2.09-17.33,2.76-1.28.15-1.27.15-1.27-1.19,0-20.69-.03-41.38-.01-62.06.03-30.03-.06-60.06.25-90.09.11-11.08.2-22.16.3-33.25.05-5.7.08-11.4.19-17.1.12-6.18,1.48-12.14,3.53-17.94,4.92-13.93,12.9-25.81,24.13-35.43,6.17-5.29,13.22-9.24,20.57-12.64,12.42-5.73,25.42-9.65,38.79-12.42,1.08-.22,2.16-.44,3.24-.66.41-.17.81-.18.56.39-.19.44-.77.52-1.21.67-8.92,3.1-17.21,7.48-25.35,12.19-5.21,3.02-10.23,6.32-14.83,10.24-6.92,5.9-12.14,13.02-15.41,21.52-1.73,4.49-3.19,9.04-3.64,13.88-.33,3.5-.05,6.96.35,10.41,1.36,11.54,4.64,22.61,8.44,33.55,5.06,14.56,9.73,29.25,14.71,43.83,6.07,17.78,11.85,35.66,17.92,53.44,3.17,9.29,6.21,18.62,9.39,27.91.37,1.07.61,2.12.26,3.23Z"/>
        <path class="cls-1" d="m82.39,231.29c-3.29-9.94-6.58-19.88-9.97-29.79-3.08-9.01-6.05-18.05-9.07-27.08-2.17-6.49-4.28-12.99-6.5-19.46-5.79-16.87-11.29-33.83-17.02-50.72-1.59-4.68-3.23-9.34-4.58-14.1-1.29-4.54-2.37-9.14-3.25-13.78-1.1-5.75-1.53-11.56-1.26-17.41.11-2.36.71-4.66,1.4-6.92,1.39-4.54,2.96-9.01,5.3-13.16,1.81-3.21,3.82-6.28,6.32-9.03,1.03-1.13,2.01-2.3,3.11-3.36,4.03-3.88,8.46-7.26,13.2-10.22,5.71-3.58,11.62-6.83,17.67-9.8,4.01-1.97,8.11-3.78,12.34-5.25.25-.09.58-.1.73-.28.25-.3-.17-.2-.26-.3.8-.45,1.71-.47,2.58-.61.77-.12,1.07.23,1,.98-.02.26,0,.53,0,.79-.06,48.72.18,97.43-.17,146.15-.08,11.61-.18,23.22-.29,34.83-.02,2.54-.55,5.03-.96,7.52-1.41,8.64-3.05,17.23-5.3,25.69-1.38,5.2-2.93,10.34-5.03,15.31Z"/>
        <path class="cls-6" d="m199.06,245.56c-3.29-9.94-6.58-19.88-9.97-29.79-3.08-9.01-6.05-18.05-9.07-27.08-2.17-6.49-4.28-12.99-6.5-19.46-5.79-16.87-11.29-33.83-17.02-50.72-1.59-4.68-3.23-9.34-4.58-14.1-1.29-4.54-2.37-9.14-3.25-13.78-1.1-5.75-1.53-11.56-1.26-17.41.11-2.36.71-4.66,1.4-6.92,1.39-4.54,2.96-9.01,5.3-13.16,1.81-3.21,3.82-6.28,6.32-9.03,1.03-1.13,2.01-2.3,3.11-3.36,4.03-3.88,8.46-7.26,13.2-10.22,5.71-3.58,11.62-6.83,17.67-9.8,4.01-1.97,8.11-3.78,12.34-5.25.25-.09.58-.1.73-.28.25-.3-.17-.2-.26-.3.8-.45,1.71-.47,2.58-.61.77-.12,1.07.23,1,.98-.02.26,0,.53,0,.79-.06,48.72.18,97.43-.17,146.15-.08,11.61-.18,23.22-.29,34.83-.02,2.54-.55,5.03-.96,7.52-1.41,8.64-3.05,17.23-5.3,25.69-1.38,5.2-2.93,10.34-5.03,15.31Z"/>
      </g>
    </g>
  </g>
</svg>