<svg width="26" height="26" viewBox="0 0 26 26" fill="none" xmlns="http://www.w3.org/2000/svg">
<path fill-rule="evenodd" clip-rule="evenodd" d="M4.0625 3.25C4.51123 3.25 4.875 3.61377 4.875 4.0625V21.9375C4.875 22.3862 4.51123 22.75 4.0625 22.75C3.61377 22.75 3.25 22.3862 3.25 21.9375V4.0625C3.25 3.61377 3.61377 3.25 4.0625 3.25Z" fill="#6366F1"/>
<path fill-rule="evenodd" clip-rule="evenodd" d="M6.5 6.5C6.5 5.60254 7.22754 4.875 8.125 4.875H17.875C18.7725 4.875 19.5 5.60254 19.5 6.5V10.5625C19.5 11.46 18.7725 12.1875 17.875 12.1875H8.125C7.22754 12.1875 6.5 11.46 6.5 10.5625V6.5ZM17.875 6.5H8.125V10.5625H17.875V6.5Z" fill="#6366F1"/>
<path fill-rule="evenodd" clip-rule="evenodd" d="M6.5 15.4375C6.5 14.54 7.22754 13.8125 8.125 13.8125H21.9375C22.835 13.8125 23.5625 14.54 23.5625 15.4375V19.5C23.5625 20.3975 22.835 21.125 21.9375 21.125H8.125C7.22754 21.125 6.5 20.3975 6.5 19.5V15.4375ZM21.9375 15.4375H8.125V19.5H21.9375V15.4375Z" fill="#6366F1"/>
</svg>
