<svg width="24" height="24" viewBox="0 0 24 24" fill="none" xmlns="http://www.w3.org/2000/svg">
<path fill-rule="evenodd" clip-rule="evenodd" d="M12 4.5188C11.2146 4.5188 10.4368 4.67351 9.71112 4.97409C8.98544 5.27468 8.32607 5.71526 7.77066 6.27067C7.21525 6.82608 6.77468 7.48545 6.47409 8.21112C6.1735 8.9368 6.01879 9.71458 6.01879 10.5C6.01879 13.9618 5.29296 16.0466 4.59644 17.2501H19.4037C18.7071 16.0466 17.9813 13.9618 17.9813 10.5C17.9813 9.71458 17.8266 8.9368 17.526 8.21112C17.2254 7.48545 16.7848 6.82608 16.2294 6.27067C15.674 5.71526 15.0146 5.27468 14.289 4.97409C13.5633 4.67351 12.7855 4.5188 12 4.5188ZM9.13709 3.58827C10.0448 3.21231 11.0176 3.0188 12 3.0188C12.9825 3.0188 13.9553 3.21231 14.863 3.58827C15.7707 3.96424 16.5954 4.51531 17.2901 5.21001C17.9848 5.9047 18.5358 6.72943 18.9118 7.6371C19.2878 8.54477 19.4813 9.5176 19.4813 10.5C19.4813 13.7501 20.1614 15.5651 20.7022 16.4993L20.7027 16.5C20.8341 16.7277 20.9034 16.9859 20.9037 17.2487C20.9039 17.5116 20.835 17.7699 20.704 17.9978C20.573 18.2256 20.3844 18.4151 20.1571 18.5471C19.9298 18.6791 19.6718 18.7491 19.4089 18.75L19.4063 18.75H4.59379L4.59115 18.75C4.3283 18.7491 4.0703 18.6791 3.843 18.5471C3.61571 18.4151 3.4271 18.2256 3.29608 17.9978C3.16505 17.7699 3.0962 17.5116 3.09644 17.2487C3.09667 16.9859 3.16597 16.7277 3.2974 16.5L3.29785 16.4993C3.83869 15.5651 4.51879 13.7501 4.51879 10.5C4.51879 9.5176 4.7123 8.54477 5.08827 7.6371C5.46424 6.72943 6.0153 5.9047 6.71 5.21001C7.4047 4.51531 8.22943 3.96424 9.13709 3.58827Z" fill="black"/>
<path fill-rule="evenodd" clip-rule="evenodd" d="M9 18C9.41421 18 9.75 18.3358 9.75 18.75V19.5C9.75 20.0967 9.98705 20.669 10.409 21.091C10.831 21.5129 11.4033 21.75 12 21.75C12.5967 21.75 13.169 21.5129 13.591 21.091C14.0129 20.669 14.25 20.0967 14.25 19.5V18.75C14.25 18.3358 14.5858 18 15 18C15.4142 18 15.75 18.3358 15.75 18.75V19.5C15.75 20.4946 15.3549 21.4484 14.6516 22.1516C13.9484 22.8549 12.9946 23.25 12 23.25C11.0054 23.25 10.0516 22.8549 9.34835 22.1516C8.64509 21.4484 8.25 20.4946 8.25 19.5V18.75C8.25 18.3358 8.58579 18 9 18Z" fill="black"/>
</svg>
