<svg width="32" height="32" viewBox="0 0 32 32" fill="none" xmlns="http://www.w3.org/2000/svg">
<path d="M32 16C32 24.8366 24.8366 32 16 32C7.16344 32 0 24.8366 0 16C0 7.16344 7.16344 0 16 0C24.8366 0 32 7.16344 32 16Z" fill="#F1F1F1"/>
<path d="M13.75 23.5C14.1642 23.5 14.5 23.1642 14.5 22.75C14.5 22.3358 14.1642 22 13.75 22C13.3358 22 13 22.3358 13 22.75C13 23.1642 13.3358 23.5 13.75 23.5Z" stroke="black" stroke-width="2" stroke-linecap="round" stroke-linejoin="round"/>
<path d="M22 23.5C22.4142 23.5 22.75 23.1642 22.75 22.75C22.75 22.3358 22.4142 22 22 22C21.5858 22 21.25 22.3358 21.25 22.75C21.25 23.1642 21.5858 23.5 22 23.5Z" stroke="black" stroke-width="2" stroke-linecap="round" stroke-linejoin="round"/>
<path d="M7.75 7.75H10.75L12.76 17.7925C12.8286 18.1378 13.0164 18.448 13.2907 18.6687C13.5649 18.8895 13.908 19.0067 14.26 19H21.55C21.902 19.0067 22.2451 18.8895 22.5193 18.6687C22.7936 18.448 22.9814 18.1378 23.05 17.7925L24.25 11.5H11.5" stroke="black" stroke-width="1.5" stroke-linecap="round" stroke-linejoin="round"/>
</svg>
