<svg width="18" height="18" viewBox="0 0 18 18" fill="none" xmlns="http://www.w3.org/2000/svg">
<path fill-rule="evenodd" clip-rule="evenodd" d="M9 0C13.9709 0 18 4.02345 18 8.98742C18 13.9514 13.9709 17.9748 9 17.9748C4.02909 17.9748 0 13.9514 0 8.98742C0 4.02345 4.02909 0 9 0Z" fill="#F0B90B"/>
<path d="M4.94644 8.98753L4.95293 11.364L6.97505 12.5523V13.9436L3.76952 12.0662V8.29259L4.94644 8.98753ZM4.94644 6.61105V7.99589L3.7688 7.30023V5.91539L4.94644 5.21973L6.12986 5.91539L4.94644 6.61105ZM7.81952 5.91539L8.99716 5.21973L10.1806 5.91539L8.99716 6.61105L7.81952 5.91539Z" fill="white"/>
<path d="M5.79736 10.8714V9.48011L6.97501 10.1758V11.5606L5.79736 10.8714ZM7.81948 13.0506L8.99712 13.7463L10.1805 13.0506V14.4354L8.99712 15.1311L7.81948 14.4354V13.0506ZM11.8695 5.91539L13.0471 5.21973L14.2305 5.91539V7.30023L13.0471 7.99589V6.61105L11.8695 5.91539ZM13.0471 11.364L13.0536 8.98753L14.2313 8.29187V12.0654L11.0257 13.9429V12.5515L13.0471 11.364Z" fill="white"/>
<path d="M12.2027 10.8718L11.025 11.561V10.1761L12.2027 9.48047V10.8718Z" fill="white"/>
<path d="M12.2027 7.10341L12.2091 8.49473L10.1813 9.68297V12.0652L9.00361 12.7544L7.82597 12.0652V9.68297L5.79808 8.49473V7.10341L6.98078 6.40775L8.9964 7.60175L11.0243 6.40775L12.2077 7.10341H12.2027ZM5.79736 4.72765L8.99712 2.84375L12.2027 4.72765L11.025 5.42331L8.99712 4.22931L6.97501 5.42331L5.79736 4.72765Z" fill="white"/>
</svg>
