<svg width="32" height="32" viewBox="0 0 32 32" fill="none" xmlns="http://www.w3.org/2000/svg">
<path fill-rule="evenodd" clip-rule="evenodd" d="M16 13.5C13.7909 13.5 12 15.2909 12 17.5C12 19.7091 13.7909 21.5 16 21.5C18.2091 21.5 20 19.7091 20 17.5C20 15.2909 18.2091 13.5 16 13.5ZM10 17.5C10 14.1863 12.6863 11.5 16 11.5C19.3137 11.5 22 14.1863 22 17.5C22 20.8137 19.3137 23.5 16 23.5C12.6863 23.5 10 20.8137 10 17.5Z" fill="#6B7280"/>
<path fill-rule="evenodd" clip-rule="evenodd" d="M27.4082 16.1836C26.5059 15.7324 25.5105 15.4983 24.5017 15.5C23.9494 15.5009 23.5009 15.054 23.5 14.5017C23.4991 13.9494 23.946 13.5009 24.4983 13.5C25.8188 13.4978 27.1216 13.8042 28.3026 14.3947C29.4837 14.9853 30.5105 15.8436 31.301 16.9013C31.6316 17.3437 31.541 17.9704 31.0987 18.301C30.6563 18.6316 30.0296 18.5411 29.699 18.0987C29.095 17.2906 28.3106 16.6348 27.4082 16.1836Z" fill="#6B7280"/>
<path fill-rule="evenodd" clip-rule="evenodd" d="M7.49839 15.5C6.48952 15.4983 5.49421 15.7324 4.59185 16.1836C3.68948 16.6348 2.90503 17.2906 2.30106 18.0987C1.97043 18.5411 1.34378 18.6316 0.901399 18.301C0.459018 17.9704 0.368426 17.3437 0.699058 16.9013C1.48958 15.8436 2.51634 14.9853 3.69742 14.3947C4.8785 13.8042 6.18124 13.4978 7.50173 13.5C8.05402 13.5009 8.50098 13.9494 8.50006 14.5017C8.49914 15.054 8.05067 15.5009 7.49839 15.5Z" fill="#6B7280"/>
<path fill-rule="evenodd" clip-rule="evenodd" d="M16 23.5032C14.6865 23.5032 13.3994 23.8721 12.2853 24.5679C11.1712 25.2637 10.275 26.2584 9.69863 27.4388C9.4563 27.935 8.85753 28.1409 8.36125 27.8986C7.86497 27.6562 7.65911 27.0575 7.90143 26.5612C8.64215 25.0442 9.79403 23.7658 11.2259 22.8716C12.6577 21.9773 14.3119 21.5032 16 21.5032C17.6882 21.5032 19.3424 21.9773 20.7742 22.8716C22.206 23.7658 23.3579 25.0442 24.0986 26.5612C24.341 27.0575 24.1351 27.6562 23.6388 27.8986C23.1425 28.1409 22.5438 27.935 22.3014 27.4388C21.7251 26.2584 20.8288 25.2637 19.7147 24.5679C18.6007 23.8721 17.3135 23.5032 16 23.5032Z" fill="#6B7280"/>
<path fill-rule="evenodd" clip-rule="evenodd" d="M8.24092 7.59399C7.68936 7.45258 7.10895 7.47105 6.5675 7.64725C6.02605 7.82346 5.54593 8.15011 5.18323 8.58904C4.82053 9.02798 4.59023 9.56107 4.51925 10.126C4.44827 10.691 4.53954 11.2645 4.78238 11.7795C5.02523 12.2945 5.40963 12.7298 5.89066 13.0344C6.37169 13.3391 6.9295 13.5006 7.4989 13.5C8.05118 13.4994 8.49935 13.9467 8.49991 14.499C8.50047 15.0513 8.05321 15.4994 7.50093 15.5C6.55193 15.501 5.62225 15.2318 4.82053 14.7241C4.01881 14.2163 3.37815 13.4908 2.9734 12.6325C2.56866 11.7741 2.41655 10.8183 2.53485 9.8767C2.65316 8.93511 3.03698 8.04663 3.64148 7.31507C4.24597 6.58351 5.04618 6.03909 5.9486 5.74542C6.85101 5.45176 7.81837 5.42097 8.73763 5.65666C9.6569 5.89235 10.4901 6.38478 11.1399 7.07642C11.7897 7.76805 12.2292 8.63033 12.4072 9.5625C12.5107 10.105 12.1549 10.6287 11.6124 10.7323C11.0699 10.8358 10.5462 10.48 10.4426 9.9375C10.3359 9.3782 10.0722 8.86083 9.68228 8.44585C9.2924 8.03087 8.79248 7.73541 8.24092 7.59399Z" fill="#6B7280"/>
<path fill-rule="evenodd" clip-rule="evenodd" d="M25.4323 7.64725C24.8909 7.47105 24.3104 7.45258 23.7589 7.59399C23.2073 7.73541 22.7074 8.03087 22.3175 8.44585C21.9276 8.86083 21.6639 9.3782 21.5572 9.9375C21.4536 10.48 20.9299 10.8358 20.3874 10.7323C19.8449 10.6287 19.4891 10.105 19.5926 9.5625C19.7706 8.63033 20.2101 7.76805 20.8599 7.07642C21.5097 6.38478 22.3429 5.89235 23.2622 5.65666C24.1814 5.42097 25.1488 5.45176 26.0512 5.74542C26.9536 6.03909 27.7538 6.58351 28.3583 7.31507C28.9628 8.04663 29.3466 8.93511 29.4649 9.8767C29.5832 10.8183 29.4311 11.7741 29.0264 12.6325C28.6217 13.4908 27.981 14.2163 27.1793 14.7241C26.3775 15.2318 25.4479 15.501 24.4989 15.5C23.9466 15.4994 23.4993 15.0513 23.4999 14.499C23.5005 13.9467 23.9486 13.4994 24.5009 13.5C25.0703 13.5006 25.6281 13.3391 26.1091 13.0344C26.5902 12.7298 26.9746 12.2945 27.2174 11.7795C27.4603 11.2645 27.5515 10.691 27.4805 10.126C27.4096 9.56107 27.1793 9.02798 26.8166 8.58904C26.4539 8.15011 25.9737 7.82346 25.4323 7.64725Z" fill="#6B7280"/>
</svg>
