<svg width="18" height="18" viewBox="0 0 18 18" fill="none" xmlns="http://www.w3.org/2000/svg">
<path fill-rule="evenodd" clip-rule="evenodd" d="M9.37931 2.83883C7.87674 2.74466 6.39146 3.20219 5.20231 4.12552C4.01316 5.04884 3.20193 6.37447 2.9209 7.85353C2.63988 9.3326 2.90839 10.8634 3.67602 12.1585C3.75463 12.2911 3.77536 12.4502 3.73336 12.5985L3.07456 14.9254L5.4014 14.2666L5.55464 14.8078L5.84144 14.3239C7.13656 15.0916 8.66734 15.3601 10.1464 15.079C11.6255 14.798 12.9511 13.9868 13.8744 12.7976C14.7978 11.6085 15.2553 10.1232 15.1611 8.62063C15.0669 7.11805 14.4276 5.70151 13.363 4.63695C12.2984 3.57238 10.8819 2.933 9.37931 2.83883ZM5.48101 15.4133C6.96518 16.2269 8.68861 16.5012 10.3564 16.1843C12.1047 15.8521 13.6716 14.8932 14.763 13.4876C15.8544 12.082 16.3952 10.3263 16.2839 8.55026C16.1726 6.77418 15.4168 5.0998 14.1585 3.84145C12.9001 2.58311 11.2258 1.82734 9.44968 1.71603C7.6736 1.60473 5.91796 2.14553 4.51236 3.23693C3.10675 4.32832 2.14785 5.89525 1.81567 7.64354C1.49879 9.31134 1.77303 11.0348 2.58668 12.5189L1.99052 14.6245C1.93498 14.8162 1.93177 15.0193 1.98124 15.2127C2.03094 15.407 2.13199 15.5843 2.27381 15.7261C2.41563 15.868 2.59298 15.969 2.78728 16.0187C2.98066 16.0682 3.18375 16.065 3.37545 16.0094L5.48101 15.4133Z" fill="#6B7280"/>
</svg>
