<svg width="24" height="24" viewBox="0 0 24 24" fill="none" xmlns="http://www.w3.org/2000/svg">
<path fill-rule="evenodd" clip-rule="evenodd" d="M3 4.5C3 3.67157 3.67157 3 4.5 3H19.5C20.3284 3 21 3.67157 21 4.5V19.5C21 20.3284 20.3284 21 19.5 21H4.5C3.67157 21 3 20.3284 3 19.5V4.5ZM19.5 4.5H4.5V19.5H19.5V4.5Z" fill="#6366F1"/>
<path fill-rule="evenodd" clip-rule="evenodd" d="M16.5 1.5C16.9142 1.5 17.25 1.83579 17.25 2.25V5.25C17.25 5.66421 16.9142 6 16.5 6C16.0858 6 15.75 5.66421 15.75 5.25V2.25C15.75 1.83579 16.0858 1.5 16.5 1.5Z" fill="#6366F1"/>
<path fill-rule="evenodd" clip-rule="evenodd" d="M7.5 1.5C7.91421 1.5 8.25 1.83579 8.25 2.25V5.25C8.25 5.66421 7.91421 6 7.5 6C7.08579 6 6.75 5.66421 6.75 5.25V2.25C6.75 1.83579 7.08579 1.5 7.5 1.5Z" fill="#6366F1"/>
<path fill-rule="evenodd" clip-rule="evenodd" d="M3 8.25C3 7.83579 3.33579 7.5 3.75 7.5H20.25C20.6642 7.5 21 7.83579 21 8.25C21 8.66421 20.6642 9 20.25 9H3.75C3.33579 9 3 8.66421 3 8.25Z" fill="#6366F1"/>
<path fill-rule="evenodd" clip-rule="evenodd" d="M7.875 12C7.875 11.5858 8.21079 11.25 8.625 11.25H11.25C11.5383 11.25 11.8011 11.4153 11.926 11.6751C12.0509 11.935 12.0158 12.2434 11.8357 12.4685L11.0055 13.5062C11.2487 13.6692 11.4584 13.8786 11.6221 14.1231C11.8282 14.4308 11.9551 14.7846 11.9916 15.1531C12.0281 15.5216 11.9731 15.8934 11.8315 16.2355C11.6899 16.5777 11.466 16.8796 11.1798 17.1144C10.8935 17.3493 10.5537 17.5099 10.1905 17.582C9.82725 17.654 9.45187 17.6354 9.09761 17.5276C8.74335 17.4198 8.42117 17.2262 8.15965 16.9641C7.86712 16.6708 7.86769 16.1959 8.16094 15.9034C8.45418 15.6109 8.92906 15.6114 9.2216 15.9047C9.30877 15.9921 9.41616 16.0566 9.53425 16.0925C9.65233 16.1284 9.77746 16.1347 9.89853 16.1107C10.0196 16.0866 10.1329 16.0331 10.2283 15.9548C10.3237 15.8765 10.3983 15.7759 10.4455 15.6618C10.4928 15.5478 10.5111 15.4239 10.4989 15.301C10.4867 15.1782 10.4444 15.0603 10.3758 14.9577C10.3071 14.8551 10.2142 14.7711 10.1052 14.7131C9.99629 14.655 9.87472 14.6248 9.75128 14.625C9.46275 14.6255 9.19951 14.4604 9.0743 14.2005C8.94909 13.9405 8.9841 13.6318 9.16435 13.4065L9.68953 12.75H8.625C8.21079 12.75 7.875 12.4142 7.875 12Z" fill="#6366F1"/>
<path fill-rule="evenodd" clip-rule="evenodd" d="M15.3355 11.3292C15.5895 11.4562 15.75 11.7159 15.75 12V16.875C15.75 17.2892 15.4143 17.625 15 17.625C14.5858 17.625 14.25 17.2892 14.25 16.875V13.5L13.95 13.725C13.6187 13.9735 13.1486 13.9064 12.9 13.575C12.6515 13.2436 12.7187 12.7735 13.05 12.525L14.55 11.4C14.7773 11.2296 15.0814 11.2021 15.3355 11.3292Z" fill="#6366F1"/>
</svg>
