<svg width="18" height="18" viewBox="0 0 18 18" fill="none" xmlns="http://www.w3.org/2000/svg">
<path fill-rule="evenodd" clip-rule="evenodd" d="M4.5594 0.405544C4.81907 0.145879 5.17125 0 5.53847 0H12.4615C12.8288 0 13.1809 0.145878 13.4406 0.405544C13.7003 0.66521 13.8461 1.01739 13.8461 1.38461V8.30767H17.3077C17.5877 8.30767 17.8401 8.47635 17.9473 8.73505C18.0544 8.99374 17.9952 9.29152 17.7972 9.48951L9.48954 17.7972C9.21917 18.0676 8.78083 18.0676 8.51047 17.7972L0.202792 9.48951C0.00479384 9.29152 -0.0544369 8.99374 0.0527189 8.73505C0.159875 8.47635 0.412315 8.30767 0.692326 8.30767H4.15386V1.38461C4.15386 1.01739 4.29974 0.665209 4.5594 0.405544ZM12.4615 1.38461L5.53847 1.38461V8.99998C5.53847 9.38233 5.22851 9.69229 4.84616 9.69229H2.3637L9 16.3286L15.6363 9.69229H13.1538C12.7715 9.69229 12.4615 9.38233 12.4615 8.99998V1.38461Z" fill="#5B7083"/>
</svg>
