<svg width="28" height="28" viewBox="0 0 28 28" fill="none" xmlns="http://www.w3.org/2000/svg">
<path fill-rule="evenodd" clip-rule="evenodd" d="M9.625 7C6.96713 7 4.8125 9.15463 4.8125 11.8125C4.8125 14.4704 6.96713 16.625 9.625 16.625C12.2829 16.625 14.4375 14.4704 14.4375 11.8125C14.4375 9.15463 12.2829 7 9.625 7ZM3.0625 11.8125C3.0625 8.18813 6.00063 5.25 9.625 5.25C13.2494 5.25 16.1875 8.18813 16.1875 11.8125C16.1875 15.4369 13.2494 18.375 9.625 18.375C6.00063 18.375 3.0625 15.4369 3.0625 11.8125Z" fill="#6366F1"/>
<path fill-rule="evenodd" clip-rule="evenodd" d="M18.5363 5.25001L18.539 5.25C20.2795 5.25 21.9487 5.94141 23.1794 7.17212C24.4101 8.40282 25.1015 10.072 25.1015 11.8125C25.1015 13.553 24.4101 15.2222 23.1794 16.4529C21.9487 17.6836 20.2795 18.375 18.539 18.375C18.0557 18.375 17.664 17.9833 17.664 17.5C17.664 17.0168 18.0557 16.625 18.539 16.625C19.8153 16.625 21.0394 16.118 21.9419 15.2155C22.8445 14.3129 23.3515 13.0889 23.3515 11.8125C23.3515 10.5361 22.8445 9.31207 21.9419 8.40955C21.0397 7.50735 19.8162 7.00036 18.5403 7C18.0963 7.00147 17.6544 7.06108 17.2258 7.17731C16.7594 7.3038 16.2788 7.02826 16.1523 6.56186C16.0258 6.09546 16.3014 5.61482 16.7678 5.48833C17.3443 5.33195 17.9389 5.25183 18.5363 5.25001Z" fill="#6366F1"/>
<path fill-rule="evenodd" clip-rule="evenodd" d="M9.62507 18.3746C8.22092 18.3746 6.83738 18.7126 5.59133 19.3599C4.34528 20.0072 3.27332 20.9449 2.46598 22.0937C2.18813 22.4891 1.64237 22.5844 1.24698 22.3066C0.851598 22.0287 0.756316 21.4829 1.03416 21.0876C2.00297 19.7089 3.28932 18.5837 4.78458 17.8069C6.27984 17.0301 7.94008 16.6246 9.62507 16.6246C11.3101 16.6246 12.9703 17.0301 14.4656 17.8069C15.9608 18.5837 17.2472 19.7089 18.216 21.0876C18.4938 21.4829 18.3985 22.0287 18.0032 22.3066C17.6078 22.5844 17.062 22.4891 16.7842 22.0937C15.9768 20.9449 14.9049 20.0072 13.6588 19.3599C12.4128 18.7126 11.0292 18.3746 9.62507 18.3746Z" fill="#6366F1"/>
<path fill-rule="evenodd" clip-rule="evenodd" d="M22.5734 19.3589C21.3274 18.7116 19.9437 18.3741 18.5396 18.375C18.0564 18.3753 17.6644 17.9838 17.6641 17.5005C17.6638 17.0173 18.0553 16.6253 18.5385 16.625C20.2238 16.624 21.8845 17.029 23.3801 17.8059C24.8757 18.5827 26.162 19.7085 27.1302 21.0879C27.4079 21.4835 27.3123 22.0292 26.9168 22.3068C26.5212 22.5844 25.9755 22.4889 25.6979 22.0933C24.8912 20.9441 23.8195 20.0061 22.5734 19.3589Z" fill="#6366F1"/>
</svg>
