<svg width="18" height="20" viewBox="0 0 18 20" fill="none" xmlns="http://www.w3.org/2000/svg">
<path d="M2.36396 15.4025L2.10469 15.5415L2.15419 15.254L1.94678 15.0489L2.23432 15.0065L2.36396 14.7449L2.49359 15.0065L2.78349 15.0489L2.57373 15.254L2.62086 15.5415L2.36396 15.4025Z" fill="#FFF9C4"/>
<path d="M17.7195 6.96696V9.36162C17.7195 9.73873 17.4131 10.0451 17.036 10.0451H10.314V6.28345H17.0336C17.4131 6.28345 17.7195 6.58985 17.7195 6.96696Z" fill="#FE97AC"/>
<path d="M15.5793 15.0489L15.3672 15.254L15.419 15.5415L15.1598 15.4025L14.9005 15.5415L14.9524 15.254L14.7402 15.0489L15.0325 15.0065L15.1598 14.7449L15.2894 15.0065L15.5793 15.0489Z" fill="#FFF9C4"/>
<path d="M10.5025 15.636L10.8584 15.9824L10.7736 16.4727L11.2143 16.2417L11.6551 16.4727L11.5726 15.9824L11.9285 15.636L11.4359 15.5653L11.2143 15.1198L10.9951 15.5653L10.5025 15.636ZM14.0733 18.7L13.9884 18.2097L14.3443 17.8633L13.8517 17.7926L13.6325 17.3471L13.411 17.7926L12.9184 17.8633L13.2743 18.2097L13.1918 18.7L13.6325 18.4667L14.0733 18.7ZM14.7026 10.5473L14.4834 10.9928L13.9908 11.0635L14.3467 11.41L14.2619 11.9002L14.7026 11.6669L15.1433 11.9002L15.0609 11.41L15.4168 11.0635L14.9242 10.9928L14.7026 10.5473ZM15.8716 14.9524L15.379 14.8817L15.1598 14.4363L14.9407 14.8817L14.448 14.9524L14.8039 15.2989L14.7191 15.7892L15.1598 15.5582L15.6006 15.7892L15.5157 15.2989L15.8716 14.9524ZM10.314 10.321H16.442V18.4643C16.442 18.8414 16.1356 19.1478 15.7585 19.1478H10.314V10.321ZM12.9278 13.5453L13.2861 13.1989L12.7935 13.1282L12.5719 12.6827L12.3527 13.1282L11.8601 13.1989L12.216 13.5453L12.1312 14.0356L12.5719 13.8023L13.0127 14.0356L12.9278 13.5453Z" fill="#DC0C55"/>
<path d="M12.9726 2.39233C13.9696 2.39233 14.7827 3.20548 14.7827 4.20247C14.7827 5.20181 13.9696 6.0126 12.9726 6.0126H9.25098L10.4742 4.16004C11.3604 2.93679 11.9332 2.39233 12.9726 2.39233Z" fill="#FAF7A6"/>
<path d="M15.8718 14.9524L15.5159 15.2989L15.6008 15.7892L15.16 15.5582L14.7193 15.7892L14.8041 15.2989L14.4482 14.9524L14.9408 14.8817L15.16 14.4363L15.3792 14.8817L15.8718 14.9524ZM15.3675 15.2541L15.5772 15.0491L15.2873 15.009L15.1577 14.7474L15.0281 15.009L14.7381 15.0491L14.9479 15.2541L14.8961 15.5417L15.1553 15.405L15.4146 15.5417L15.3675 15.2541Z" fill="#EF4668"/>
<path d="M14.5755 11.1177L14.7028 10.8584L14.8348 11.1177L15.1224 11.1624L14.9149 11.3628L14.9644 11.6503L14.7028 11.516L14.4459 11.6503L14.4954 11.3628L14.2856 11.1624L14.5755 11.1177Z" fill="#FFF9C4"/>
<path d="M15.0608 11.4122L15.1433 11.9024L14.7025 11.6691L14.2618 11.9024L14.3466 11.4122L13.9907 11.0657L14.4833 10.995L14.7025 10.5496L14.9241 10.995L15.4167 11.0657L15.0608 11.4122ZM14.7025 10.8583L14.5729 11.1176L14.283 11.1624L14.4928 11.3651L14.4433 11.6526L14.7002 11.5183L14.9594 11.6526L14.9099 11.3651L15.1173 11.1624L14.8298 11.1176L14.7025 10.8583Z" fill="#EF4668"/>
<path d="M13.8398 18.1602L13.8893 18.4478L13.6324 18.3134L13.3732 18.4478L13.4227 18.1602L13.2129 17.9575L13.5004 17.9127L13.6324 17.6511L13.7621 17.9127L14.052 17.9575L13.8398 18.1602Z" fill="#FFF9C4"/>
<path d="M13.9885 18.2096L14.0734 18.6998L13.6326 18.4665L13.1919 18.6998L13.2744 18.2096L12.9185 17.8631L13.4111 17.7924L13.6326 17.3469L13.8518 17.7924L14.3444 17.8631L13.9885 18.2096ZM13.8895 18.4476L13.84 18.1601L14.0498 17.9574L13.7599 17.9126L13.6303 17.651L13.4983 17.9126L13.2107 17.9574L13.4181 18.1601L13.3686 18.4476L13.6279 18.3133L13.8895 18.4476Z" fill="#EF4668"/>
<path d="M12.7816 13.4958L12.8311 13.7857L12.5719 13.649L12.3126 13.7857L12.3621 13.4958L12.1523 13.2931L12.4422 13.2506L12.5719 12.989L12.6992 13.2506L12.9891 13.2931L12.7816 13.4958Z" fill="#FFF9C4"/>
<path d="M12.5721 12.6802L12.7937 13.1256L13.2863 13.1963L12.928 13.5428L13.0129 14.0331L12.5721 13.8021L12.1314 14.0354L12.2163 13.5452L11.8604 13.1987L12.353 13.128L12.5721 12.6802ZM12.8314 13.7856L12.7819 13.4957L12.9893 13.293L12.6994 13.2482L12.5698 12.9889L12.4402 13.2482L12.1503 13.293L12.36 13.4957L12.3105 13.7856L12.5674 13.6489L12.8314 13.7856Z" fill="#EF4668"/>
<path d="M11.3441 15.6901L11.6316 15.7325L11.4242 15.9376L11.4737 16.2251L11.2145 16.0884L10.9552 16.2251L11.0047 15.9376L10.7949 15.7325L11.0848 15.6901L11.2145 15.4285L11.3441 15.6901Z" fill="#FFF9C4"/>
<path d="M11.3439 15.6901L11.2119 15.4285L11.0822 15.6901L10.7923 15.7302L11.0021 15.9352L10.9526 16.2228L11.2095 16.0861L11.4688 16.2228L11.4193 15.9352L11.6267 15.7302L11.3439 15.6901ZM11.5725 15.9847L11.655 16.475L11.2142 16.244L10.7735 16.475L10.8583 15.9847L10.5024 15.6382L10.995 15.5675L11.2142 15.1221L11.4358 15.5675L11.9284 15.6382L11.5725 15.9847Z" fill="#EF4668"/>
<path d="M10.3162 1.17842C10.8323 2.07642 10.7522 2.98149 10.0475 4.20238L8.96798 5.79804L7.13663 3.08048C6.89858 2.67037 6.84202 2.15184 6.97872 1.66159C7.11307 1.17135 7.43125 0.756527 7.84372 0.513761C8.12184 0.355846 8.43296 0.270996 8.74407 0.270996C8.90199 0.270996 9.06226 0.292209 9.21782 0.334634C9.68214 0.461909 10.0757 0.761241 10.3162 1.17842ZM10.038 11.7352V19.1478H7.872V6.28357H8.96562L8.96798 6.28592L8.9727 6.28357H10.038V10.321V11.7352ZM7.51375 4.15289L8.74171 6.01016H5.0201C4.02075 6.01016 3.20996 5.19937 3.20996 4.20003C3.20996 3.20304 4.02075 2.38989 5.0201 2.38989C6.05715 2.39225 6.62753 2.9367 7.51375 4.15289Z" fill="#FAF7A6"/>
<path d="M7.59874 6.28345V10.0475H0.954511C0.577399 10.0475 0.270996 9.74109 0.270996 9.36398V6.96696C0.270996 6.58985 0.577399 6.28345 0.954511 6.28345H7.59874Z" fill="#FE97AC"/>
<path d="M6.72685 15.7325L6.51944 15.9376L6.56894 16.2251L6.30967 16.0884L6.05041 16.2251L6.0999 15.9376L5.89014 15.7325L6.18004 15.6901L6.30967 15.4285L6.43931 15.6901L6.72685 15.7325Z" fill="#FFF9C4"/>
<path d="M6.53101 15.5651L7.02361 15.6358L6.66771 15.9823L6.7502 16.4725L6.30945 16.2415L5.86871 16.4725L5.95356 15.9823L5.59766 15.6358L6.09026 15.5651L6.30945 15.1196L6.53101 15.5651ZM6.51922 15.9375L6.72663 15.7324L6.43909 15.6924L6.3071 15.4307L6.17747 15.6924L5.88756 15.7324L6.09733 15.9375L6.04783 16.225L6.30474 16.0883L6.564 16.225L6.51922 15.9375Z" fill="#EF4668"/>
<path d="M5.16162 13.4958L5.21111 13.7857L4.9542 13.649L4.69258 13.7857L4.74208 13.4958L4.53467 13.2931L4.82222 13.2506L4.9542 12.989L5.08148 13.2506L5.36903 13.2931L5.16162 13.4958Z" fill="#FFF9C4"/>
<path d="M5.17359 13.1256L5.66619 13.1963L5.31029 13.5428L5.39278 14.0331L4.95439 13.7997L4.51364 14.0331L4.59613 13.5428L4.24023 13.1963L4.73284 13.1256L4.95439 12.6802L5.17359 13.1256ZM5.2113 13.7856L5.1618 13.4957L5.36921 13.293L5.08166 13.2482L4.95203 12.9889L4.82004 13.2482L4.5325 13.293L4.73991 13.4957L4.69041 13.7856L4.94968 13.6489L5.2113 13.7856Z" fill="#EF4668"/>
<path d="M4.31084 17.9575L4.09871 18.1602L4.15292 18.4478L3.8913 18.3134L3.63204 18.4478L3.68389 18.1602L3.47412 17.9575L3.76403 17.9127L3.8913 17.6511L4.02093 17.9127L4.31084 17.9575Z" fill="#FFF9C4"/>
<path d="M3.89149 17.3447L4.11068 17.7902L4.60328 17.8609L4.24738 18.2097L4.33223 18.7L3.89149 18.4666L3.45074 18.7L3.53559 18.2097L3.17969 17.8633L3.67229 17.7925L3.89149 17.3447ZM4.02112 17.9128L3.89149 17.6511L3.76185 17.9128L3.47195 17.9575L3.68172 18.1602L3.62986 18.4478L3.88913 18.3134L4.14839 18.4478L4.09654 18.1602L4.30631 17.9575L4.02112 17.9128Z" fill="#EF4668"/>
<path d="M2.39941 11.1624L2.68932 11.1177L2.81895 10.8584L2.95094 11.1177L3.23849 11.1624L3.02872 11.3628L3.07822 11.6503L2.81895 11.516L2.56204 11.6503L2.61154 11.3628L2.39941 11.1624Z" fill="#FFF9C4"/>
<path d="M2.6891 11.1176L2.39919 11.1624L2.60896 11.3651L2.55947 11.6526L2.81637 11.5183L3.07564 11.6526L3.02614 11.3651L3.23355 11.1624L2.94601 11.1176L2.81402 10.8583L2.6891 11.1176ZM2.46283 11.4122L2.10693 11.0657L2.59954 10.995L2.81873 10.5496L3.04028 10.995L3.53289 11.0657L3.17699 11.4122L3.25948 11.9024L2.81873 11.6691L2.37798 11.9024L2.46283 11.4122Z" fill="#EF4668"/>
<path d="M4.33189 18.7L4.24704 18.2097L4.60294 17.8633L4.11034 17.7926L3.89114 17.3471L3.67195 17.7926L3.17935 17.8633L3.53525 18.2097L3.4504 18.7L3.89114 18.4667L4.33189 18.7ZM4.51338 14.0356L4.95413 13.8023L5.39252 14.0356L5.31003 13.5453L5.66593 13.1989L5.17332 13.1282L4.95413 12.6827L4.73257 13.1282L4.23997 13.1989L4.59587 13.5453L4.51338 14.0356ZM7.02353 15.636L6.53093 15.5653L6.30937 15.1198L6.09018 15.5653L5.59757 15.636L5.95347 15.9824L5.86862 16.4727L6.30937 16.2417L6.75012 16.4727L6.66763 15.9824L7.02353 15.636ZM1.54834 18.4643V10.321H7.59862V19.1478H2.23421C1.85474 19.1478 1.54834 18.8414 1.54834 18.4643ZM1.92309 15.7892L2.36384 15.5582L2.80459 15.7892L2.71974 15.2989L3.07564 14.9524L2.58304 14.8817L2.36384 14.4363L2.14229 14.8817L1.64969 14.9524L2.00559 15.2989L1.92309 15.7892ZM2.37799 11.9026L2.81873 11.6692L3.25948 11.9026L3.17699 11.4123L3.53289 11.0658L3.04029 10.9951L2.81873 10.5497L2.59954 10.9951L2.10694 11.0658L2.46284 11.4123L2.37799 11.9026Z" fill="#DC0C55"/>
<path d="M2.49369 15.0067L2.36406 14.745L2.23207 15.0067L1.94452 15.0467L2.15193 15.2518L2.10244 15.5393L2.3617 15.4026L2.61861 15.5393L2.56911 15.2518L2.77888 15.0467L2.49369 15.0067ZM2.1425 14.8817L2.36406 14.4363L2.58325 14.8817L3.07586 14.9524L2.71996 15.2989L2.80481 15.7892L2.36406 15.5582L1.92331 15.7892L2.0058 15.2989L1.6499 14.9524L2.1425 14.8817Z" fill="#EF4668"/>
<path d="M5.0203 6.01013H8.74191L7.51395 4.15285C6.63009 2.93667 6.05735 2.39221 5.0203 2.39221C4.02095 2.39221 3.21016 3.20536 3.21016 4.20235C3.21016 5.19934 4.02095 6.01013 5.0203 6.01013ZM10.0477 4.20471C10.75 2.98381 10.8325 2.07874 10.3164 1.18074C10.0759 0.761207 9.68469 0.464232 9.21802 0.336957C9.06246 0.296889 8.90219 0.273319 8.74427 0.273319C8.43316 0.273319 8.12204 0.35817 7.84392 0.516085C7.43145 0.756494 7.11327 1.17367 6.97892 1.66392C6.84222 2.15416 6.89878 2.67033 7.13683 3.0828L8.96818 5.80036L10.0477 4.20471ZM10.0382 10.321V6.28353H8.9729L8.97054 6.28589L8.96583 6.28353H7.8722V19.1477H10.0406V10.321H10.0382ZM1.54851 18.4642C1.54851 18.8413 1.85492 19.1477 2.23203 19.1477H7.5988V10.321H1.54851V18.4642ZM0.954563 10.0476H7.5988V6.28353H0.954563C0.577452 6.28353 0.271049 6.58994 0.271049 6.96705V9.36171C0.271049 9.74117 0.577452 10.0476 0.954563 10.0476ZM12.9726 6.01013C13.9696 6.01013 14.7828 5.19934 14.7828 4.19999C14.7828 3.203 13.9696 2.38986 12.9726 2.38986C11.9332 2.38986 11.3605 2.93431 10.4743 4.15521L9.25101 6.00777H12.9726V6.01013ZM15.7562 19.1477C16.1333 19.1477 16.4397 18.8413 16.4397 18.4642V10.321H10.3116V19.1477H15.7562ZM16.7155 10.321V18.4642C16.7155 18.9922 16.2865 19.4212 15.7585 19.4212H2.23439C1.70643 19.4212 1.27746 18.9922 1.27746 18.4642V10.321H0.95692C0.428964 10.321 0 9.89202 0 9.36406V6.96705C0 6.43909 0.428964 6.01013 0.95692 6.01013H3.99267C3.36336 5.65187 2.93911 4.97543 2.93911 4.19999C2.93911 3.05216 3.87246 2.11645 5.02265 2.11645C5.72267 2.11645 6.22705 2.33093 6.72201 2.78818C6.60888 2.40871 6.60652 1.98918 6.7173 1.5885C6.87286 1.0299 7.23347 0.553796 7.71193 0.28039C8.19275 0.00227066 8.7537 -0.0731517 9.29108 0.072979C9.83082 0.214396 10.2786 0.560867 10.5568 1.04168C10.9739 1.76055 11.0352 2.50299 10.743 3.36328C11.443 2.5077 12.0299 2.11881 12.9797 2.11881C14.1275 2.11881 15.0632 3.05452 15.0632 4.20235C15.0632 4.97779 14.6366 5.65187 14.0073 6.01248H17.0431C17.571 6.01248 18 6.44145 18 6.96941V9.36406C18 9.89202 17.571 10.321 17.0431 10.321H16.7155ZM17.036 10.0476C17.4131 10.0476 17.7195 9.74117 17.7195 9.36406V6.96705C17.7195 6.58994 17.4131 6.28353 17.036 6.28353H10.314V10.0476H17.036Z" fill="#EF4668"/>
</svg>
