<svg width="24" height="24" viewBox="0 0 24 24" fill="none" xmlns="http://www.w3.org/2000/svg">
<path fill-rule="evenodd" clip-rule="evenodd" d="M7.125 4.5C5.67525 4.5 4.5 5.67525 4.5 7.125C4.5 8.57475 5.67525 9.75 7.125 9.75C8.57475 9.75 9.75 8.57475 9.75 7.125C9.75 5.67525 8.57475 4.5 7.125 4.5ZM3 7.125C3 4.84683 4.84683 3 7.125 3C9.40317 3 11.25 4.84683 11.25 7.125C11.25 9.40317 9.40317 11.25 7.125 11.25C4.84683 11.25 3 9.40317 3 7.125Z" fill="#6366F1"/>
<path fill-rule="evenodd" clip-rule="evenodd" d="M16.875 4.5C15.4253 4.5 14.25 5.67525 14.25 7.125C14.25 8.57475 15.4253 9.75 16.875 9.75C18.3247 9.75 19.5 8.57475 19.5 7.125C19.5 5.67525 18.3247 4.5 16.875 4.5ZM12.75 7.125C12.75 4.84683 14.5968 3 16.875 3C19.1532 3 21 4.84683 21 7.125C21 9.40317 19.1532 11.25 16.875 11.25C14.5968 11.25 12.75 9.40317 12.75 7.125Z" fill="#6366F1"/>
<path fill-rule="evenodd" clip-rule="evenodd" d="M7.125 14.25C5.67525 14.25 4.5 15.4253 4.5 16.875C4.5 18.3247 5.67525 19.5 7.125 19.5C8.57475 19.5 9.75 18.3247 9.75 16.875C9.75 15.4253 8.57475 14.25 7.125 14.25ZM3 16.875C3 14.5968 4.84683 12.75 7.125 12.75C9.40317 12.75 11.25 14.5968 11.25 16.875C11.25 19.1532 9.40317 21 7.125 21C4.84683 21 3 19.1532 3 16.875Z" fill="#6366F1"/>
<path fill-rule="evenodd" clip-rule="evenodd" d="M16.875 13.5C17.2892 13.5 17.625 13.8358 17.625 14.25V19.5C17.625 19.9142 17.2892 20.25 16.875 20.25C16.4608 20.25 16.125 19.9142 16.125 19.5V14.25C16.125 13.8358 16.4608 13.5 16.875 13.5Z" fill="#6366F1"/>
<path fill-rule="evenodd" clip-rule="evenodd" d="M13.5 16.875C13.5 16.4608 13.8358 16.125 14.25 16.125H19.5C19.9142 16.125 20.25 16.4608 20.25 16.875C20.25 17.2892 19.9142 17.625 19.5 17.625H14.25C13.8358 17.625 13.5 17.2892 13.5 16.875Z" fill="#6366F1"/>
</svg>
