<svg width="26" height="26" viewBox="0 0 26 26" fill="none" xmlns="http://www.w3.org/2000/svg">
<path fill-rule="evenodd" clip-rule="evenodd" d="M3.25 4.875C3.25 3.97754 3.97754 3.25 4.875 3.25H21.125C22.0225 3.25 22.75 3.97754 22.75 4.875V21.125C22.75 22.0225 22.0225 22.75 21.125 22.75H4.875C3.97754 22.75 3.25 22.0225 3.25 21.125V4.875ZM21.125 4.875H4.875V21.125H21.125V4.875Z" fill="#6366F1"/>
<path fill-rule="evenodd" clip-rule="evenodd" d="M16.4349 11.0251C16.6337 10.9419 16.847 10.899 17.0625 10.899C17.278 10.899 17.4913 10.9419 17.6901 11.0251C17.8877 11.1079 18.067 11.2289 18.2177 11.3812L22.512 15.6755C22.8293 15.9928 22.8293 16.5073 22.512 16.8246C22.1947 17.1419 21.6803 17.1419 21.363 16.8246L17.0625 12.5241L17.0581 12.5285L12.5303 17.0563C12.3796 17.2086 12.2003 17.3297 12.0026 17.4124C11.8038 17.4957 11.5905 17.5385 11.375 17.5385C11.1595 17.5385 10.9462 17.4957 10.7474 17.4124C10.5497 17.3297 10.3704 17.2086 10.2197 17.0563L8.12498 14.9616L8.12064 14.966L4.63702 18.4496C4.31972 18.7669 3.80528 18.7669 3.48798 18.4496C3.17067 18.1323 3.17067 17.6178 3.48798 17.3005L6.96975 13.8187C7.12043 13.6664 7.29975 13.5454 7.4974 13.4626C7.69617 13.3794 7.9095 13.3365 8.125 13.3365C8.3405 13.3365 8.55383 13.3794 8.7526 13.4626C8.95026 13.5454 9.12959 13.6664 9.28027 13.8188L11.375 15.9135L11.3794 15.9091L15.9073 11.3812C16.0579 11.2289 16.2373 11.1079 16.4349 11.0251Z" fill="#6366F1"/>
<path d="M10.1562 10.5625C10.8293 10.5625 11.375 10.0168 11.375 9.34375C11.375 8.67065 10.8293 8.125 10.1562 8.125C9.48315 8.125 8.9375 8.67065 8.9375 9.34375C8.9375 10.0168 9.48315 10.5625 10.1562 10.5625Z" fill="#6366F1"/>
</svg>
