<svg width="24" height="24" viewBox="0 0 24 24" fill="none" xmlns="http://www.w3.org/2000/svg">
<path fill-rule="evenodd" clip-rule="evenodd" d="M13.8394 5.38066L11.9961 7.22402C11.7032 7.51691 11.2283 7.51691 10.9354 7.22402C10.6425 6.93113 10.6425 6.45625 10.9354 6.16336L12.7916 4.30711C12.7998 4.29893 12.8082 4.29093 12.8168 4.28314C13.7452 3.43687 14.9641 2.9809 16.22 3.00998C17.476 3.03905 18.6724 3.55094 19.5608 4.43927C20.4491 5.3276 20.961 6.52405 20.9901 7.77999C21.0191 9.03594 20.5632 10.2548 19.7169 11.1833C19.7088 11.1922 19.7005 11.2009 19.692 11.2093L17.0408 13.8512C17.0405 13.8515 17.0401 13.8518 17.0398 13.8521C16.588 14.3054 16.0511 14.6651 15.46 14.9106C14.8685 15.1562 14.2343 15.2827 13.5938 15.2827C12.9534 15.2827 12.3192 15.1562 11.7277 14.9106C11.1361 14.6649 10.599 14.3049 10.1469 13.8512C9.85456 13.5577 9.85544 13.0828 10.1489 12.7905C10.4423 12.4982 10.9172 12.499 11.2095 12.7925C11.5222 13.1063 11.8938 13.3554 12.303 13.5253C12.7121 13.6952 13.1508 13.7827 13.5938 13.7827C14.0369 13.7827 14.4756 13.6952 14.8847 13.5253C15.2939 13.3554 15.6655 13.1063 15.9782 12.7925L15.9801 12.7905L18.6198 10.1602C19.1988 9.51842 19.5105 8.67924 19.4905 7.81471C19.4703 6.94447 19.1156 6.11545 18.5001 5.49993C17.8846 4.88441 17.0556 4.52972 16.1853 4.50958C15.3206 4.48956 14.4812 4.80139 13.8394 5.38066Z" fill="#6366F1"/>
<path fill-rule="evenodd" clip-rule="evenodd" d="M10.4063 10.2173C9.96327 10.2173 9.52459 10.3048 9.11544 10.4747C8.70628 10.6446 8.3347 10.8936 8.02201 11.2075L8.02008 11.2094L8.02008 11.2094L5.38036 13.8398C4.80136 14.4816 4.48968 15.3207 4.5097 16.1853C4.52984 17.0555 4.88453 17.8845 5.50005 18.5001C6.11557 19.1156 6.94459 19.4703 7.81483 19.4904C8.67958 19.5104 9.51895 19.1986 10.1607 18.6193L12.0041 16.776C12.297 16.4831 12.7719 16.4831 13.0648 16.776C13.3577 17.0689 13.3577 17.5437 13.0648 17.8366L11.2085 19.6929C11.2003 19.7011 11.192 19.7091 11.1834 19.7169C10.2549 20.5631 9.03606 21.0191 7.78012 20.99C6.52417 20.9609 5.32772 20.449 4.43939 19.5607C3.55106 18.6724 3.03918 17.4759 3.0101 16.22C2.98102 14.964 3.43699 13.7452 4.28326 12.8167C4.29135 12.8078 4.29966 12.7991 4.30817 12.7907L6.95937 10.1488C6.95971 10.1485 6.96004 10.1482 6.96038 10.1478C7.41222 9.69455 7.94905 9.33488 8.54012 9.0894C9.13163 8.84374 9.76582 8.71729 10.4063 8.71729C11.0468 8.71729 11.681 8.84374 12.2725 9.0894C12.864 9.33506 13.4012 9.69509 13.8533 10.1488C14.1456 10.4423 14.1447 10.9171 13.8513 11.2095C13.5578 11.5018 13.083 11.501 12.7906 11.2075C12.4779 10.8936 12.1063 10.6446 11.6972 10.4747C11.288 10.3048 10.8494 10.2173 10.4063 10.2173Z" fill="#6366F1"/>
</svg>
