<svg width="24" height="24" viewBox="0 0 24 24" fill="none" xmlns="http://www.w3.org/2000/svg">
<path fill-rule="evenodd" clip-rule="evenodd" d="M9 12C9 11.5858 9.33579 11.25 9.75 11.25H20.25C20.6642 11.25 21 11.5858 21 12C21 12.4142 20.6642 12.75 20.25 12.75H9.75C9.33579 12.75 9 12.4142 9 12Z" fill="#6366F1"/>
<path fill-rule="evenodd" clip-rule="evenodd" d="M9 6C9 5.58579 9.33579 5.25 9.75 5.25H20.25C20.6642 5.25 21 5.58579 21 6C21 6.41421 20.6642 6.75 20.25 6.75H9.75C9.33579 6.75 9 6.41421 9 6Z" fill="#6366F1"/>
<path fill-rule="evenodd" clip-rule="evenodd" d="M9 18C9 17.5858 9.33579 17.25 9.75 17.25H20.25C20.6642 17.25 21 17.5858 21 18C21 18.4142 20.6642 18.75 20.25 18.75H9.75C9.33579 18.75 9 18.4142 9 18Z" fill="#6366F1"/>
<path fill-rule="evenodd" clip-rule="evenodd" d="M5.64446 4.23701C5.86558 4.37367 6.00016 4.61507 6.00016 4.875V10.125C6.00016 10.5392 5.66438 10.875 5.25016 10.875C4.83595 10.875 4.50016 10.5392 4.50016 10.125V6.08853L4.08557 6.29582C3.71509 6.48106 3.26459 6.33089 3.07934 5.96041C2.8941 5.58993 3.04427 5.13942 3.41475 4.95418L4.91475 4.20418C5.14725 4.08793 5.42335 4.10036 5.64446 4.23701Z" fill="#6366F1"/>
<path fill-rule="evenodd" clip-rule="evenodd" d="M5.11166 14.2368C5.03278 14.2309 4.95356 14.2418 4.87916 14.2686C4.80476 14.2955 4.73686 14.3377 4.6799 14.3926C4.62293 14.4475 4.57818 14.5138 4.54856 14.5871C4.39345 14.9712 3.95635 15.1568 3.57228 15.0017C3.1882 14.8466 3.00259 14.4095 3.1577 14.0254C3.2663 13.7565 3.4304 13.5135 3.63927 13.3123C3.84814 13.1111 4.0971 12.9562 4.3699 12.8577C4.64269 12.7593 4.93318 12.7194 5.2224 12.7409C5.51163 12.7623 5.79309 12.8444 6.0484 12.982C6.30372 13.1196 6.52716 13.3094 6.70413 13.5392C6.8811 13.7689 7.00762 14.0334 7.07544 14.3154C7.14326 14.5974 7.15085 14.8905 7.09772 15.1756C7.04458 15.4607 6.93192 15.7314 6.76707 15.97C6.76167 15.9779 6.75612 15.9856 6.75043 15.9932L5.24825 18H6.375C6.78922 18 7.125 18.3358 7.125 18.75C7.125 19.1642 6.78922 19.5 6.375 19.5H3.75C3.46605 19.5 3.20645 19.3396 3.07934 19.0857C2.95223 18.8318 2.97942 18.5279 3.14958 18.3006L5.53925 15.1081C5.58078 15.0453 5.60931 14.9748 5.62311 14.9008C5.6376 14.823 5.63553 14.7431 5.61703 14.6662C5.59854 14.5893 5.56403 14.5172 5.51577 14.4545C5.4675 14.3918 5.40657 14.34 5.33693 14.3025C5.2673 14.265 5.19054 14.2426 5.11166 14.2368Z" fill="#6366F1"/>
</svg>
