<svg width="32" height="32" viewBox="0 0 32 32" fill="none" xmlns="http://www.w3.org/2000/svg">
<path fill-rule="evenodd" clip-rule="evenodd" d="M12.25 10C12.25 9.58579 12.5858 9.25 13 9.25H24.25C24.6642 9.25 25 9.58579 25 10C25 10.4142 24.6642 10.75 24.25 10.75H13C12.5858 10.75 12.25 10.4142 12.25 10Z" fill="#6366F1"/>
<path fill-rule="evenodd" clip-rule="evenodd" d="M12.25 16C12.25 15.5858 12.5858 15.25 13 15.25H24.25C24.6642 15.25 25 15.5858 25 16C25 16.4142 24.6642 16.75 24.25 16.75H13C12.5858 16.75 12.25 16.4142 12.25 16Z" fill="#6366F1"/>
<path fill-rule="evenodd" clip-rule="evenodd" d="M12.25 22C12.25 21.5858 12.5858 21.25 13 21.25H24.25C24.6642 21.25 25 21.5858 25 22C25 22.4142 24.6642 22.75 24.25 22.75H13C12.5858 22.75 12.25 22.4142 12.25 22Z" fill="#6366F1"/>
<path fill-rule="evenodd" clip-rule="evenodd" d="M7 10C7 9.58579 7.33579 9.25 7.75 9.25H9.25C9.66421 9.25 10 9.58579 10 10C10 10.4142 9.66421 10.75 9.25 10.75H7.75C7.33579 10.75 7 10.4142 7 10Z" fill="#6366F1"/>
<path fill-rule="evenodd" clip-rule="evenodd" d="M7 16C7 15.5858 7.33579 15.25 7.75 15.25H9.25C9.66421 15.25 10 15.5858 10 16C10 16.4142 9.66421 16.75 9.25 16.75H7.75C7.33579 16.75 7 16.4142 7 16Z" fill="#6366F1"/>
<path fill-rule="evenodd" clip-rule="evenodd" d="M7 22C7 21.5858 7.33579 21.25 7.75 21.25H9.25C9.66421 21.25 10 21.5858 10 22C10 22.4142 9.66421 22.75 9.25 22.75H7.75C7.33579 22.75 7 22.4142 7 22Z" fill="#6366F1"/>
</svg>
