<svg width="32" height="32" viewBox="0 0 32 32" fill="none" xmlns="http://www.w3.org/2000/svg">
<path fill-rule="evenodd" clip-rule="evenodd" d="M6 16.45C6.55228 16.45 7 16.8977 7 17.45V26H25V17.45C25 16.8977 25.4477 16.45 26 16.45C26.5523 16.45 27 16.8977 27 17.45V26C27 26.5304 26.7893 27.0391 26.4142 27.4142C26.0391 27.7892 25.5304 28 25 28H7C6.46957 28 5.96086 27.7892 5.58579 27.4142C5.21071 27.0391 5 26.5304 5 26V17.45C5 16.8977 5.44772 16.45 6 16.45Z" fill="#6366F1"/>
<path fill-rule="evenodd" clip-rule="evenodd" d="M6.73943 4.00005C6.74295 4.00002 6.74648 4 6.75001 4H25.2582C25.6894 4.00355 26.1081 4.14553 26.4525 4.40497C26.7969 4.66442 27.0489 5.02762 27.1714 5.44108L27.1743 5.45102L28.9618 11.726C29.0477 12.0277 28.9871 12.3522 28.7981 12.6025C28.6091 12.8528 28.3137 13 28 13H4.00001C3.68636 13 3.39088 12.8528 3.2019 12.6025C3.01292 12.3522 2.95234 12.0277 3.03827 11.726L4.82861 5.44107C4.95103 5.02761 5.20308 4.66441 5.54751 4.40497C5.89131 4.14601 6.30907 4.0041 6.73943 4.00005ZM6.75742 6C6.75714 6 6.75769 5.99998 6.75742 6L6.74178 4.00003C6.74099 4.00004 6.74021 4.00005 6.73943 4.00005M6.75742 6H6.75001C6.74966 6 6.7493 6 6.74895 6L6.74925 5.99896L6.22015 5.84824C6.22522 5.85142 6.23033 5.85455 6.23547 5.85764M6.71411 5.99937C6.72567 5.99978 6.73729 5.99999 6.74895 6L6.74669 6.00794C6.74657 6.00826 6.74646 6.00858 6.74636 6.00892L6.71411 5.99937ZM5.32465 11H4.00001V12L4.96175 12.274L5.32465 11ZM26.6754 11L27.0383 12.274L28 12V11H26.6754ZM25.2533 6.00793L25.2508 5.99896L26.2125 5.725L25.2537 6.00892C25.2536 6.00858 25.2535 6.00826 25.2533 6.00793ZM25.2418 5.99997C25.2415 5.99995 25.2421 5.99997 25.2418 5.99997L25.25 5V6L25.2418 5.99997Z" fill="#6366F1"/>
<path fill-rule="evenodd" clip-rule="evenodd" d="M4 11C4.55228 11 5 11.4477 5 12V14C5 14.7956 5.31607 15.5587 5.87868 16.1213C6.44129 16.6839 7.20435 17 8 17C8.79565 17 9.55871 16.6839 10.1213 16.1213C10.6839 15.5587 11 14.7956 11 14V12C11 11.4477 11.4477 11 12 11C12.5523 11 13 11.4477 13 12V14C13 15.3261 12.4732 16.5979 11.5355 17.5355C10.5979 18.4732 9.32608 19 8 19C6.67392 19 5.40215 18.4732 4.46447 17.5355C3.52678 16.5979 3 15.3261 3 14V12C3 11.4477 3.44772 11 4 11Z" fill="#6366F1"/>
<path fill-rule="evenodd" clip-rule="evenodd" d="M12 11C12.5523 11 13 11.4477 13 12V14C13 14.7956 13.3161 15.5587 13.8787 16.1213C14.4413 16.6839 15.2044 17 16 17C16.7956 17 17.5587 16.6839 18.1213 16.1213C18.6839 15.5587 19 14.7956 19 14V12C19 11.4477 19.4477 11 20 11C20.5523 11 21 11.4477 21 12V14C21 15.3261 20.4732 16.5979 19.5355 17.5355C18.5979 18.4732 17.3261 19 16 19C14.6739 19 13.4021 18.4732 12.4645 17.5355C11.5268 16.5979 11 15.3261 11 14V12C11 11.4477 11.4477 11 12 11Z" fill="#6366F1"/>
<path fill-rule="evenodd" clip-rule="evenodd" d="M20 11C20.5523 11 21 11.4477 21 12V14C21 14.7956 21.3161 15.5587 21.8787 16.1213C22.4413 16.6839 23.2044 17 24 17C24.7956 17 25.5587 16.6839 26.1213 16.1213C26.6839 15.5587 27 14.7956 27 14V12C27 11.4477 27.4477 11 28 11C28.5523 11 29 11.4477 29 12V14C29 15.3261 28.4732 16.5979 27.5355 17.5355C26.5979 18.4732 25.3261 19 24 19C22.6739 19 21.4021 18.4732 20.4645 17.5355C19.5268 16.5979 19 15.3261 19 14V12C19 11.4477 19.4477 11 20 11Z" fill="#6366F1"/>
</svg>
