<svg width="28" height="28" viewBox="0 0 28 28" fill="none" xmlns="http://www.w3.org/2000/svg">
<path fill-rule="evenodd" clip-rule="evenodd" d="M3.5 10.5C3.5 9.5335 4.2835 8.75 5.25 8.75H22.75C23.7165 8.75 24.5 9.5335 24.5 10.5V22.75C24.5 23.7165 23.7165 24.5 22.75 24.5H5.25C4.2835 24.5 3.5 23.7165 3.5 22.75V10.5ZM22.75 10.5H5.25V22.75H22.75V10.5Z" fill="#6366F1"/>
<path fill-rule="evenodd" clip-rule="evenodd" d="M14 2.625C13.1878 2.625 12.4088 2.94766 11.8345 3.52199C11.2602 4.09632 10.9375 4.87527 10.9375 5.6875V9.625C10.9375 10.1082 10.5457 10.5 10.0625 10.5C9.57925 10.5 9.1875 10.1082 9.1875 9.625V5.6875C9.1875 4.41115 9.69453 3.18707 10.597 2.28455C11.4996 1.38203 12.7236 0.875 14 0.875C15.2764 0.875 16.5004 1.38203 17.403 2.28455C18.3055 3.18707 18.8125 4.41115 18.8125 5.6875V9.625C18.8125 10.1082 18.4207 10.5 17.9375 10.5C17.4543 10.5 17.0625 10.1082 17.0625 9.625V5.6875C17.0625 4.87527 16.7398 4.09632 16.1655 3.52199C15.5912 2.94766 14.8122 2.625 14 2.625Z" fill="#6366F1"/>
</svg>
