<svg width="28" height="28" viewBox="0 0 28 28" fill="none" xmlns="http://www.w3.org/2000/svg">
<path fill-rule="evenodd" clip-rule="evenodd" d="M14 11.375C12.5503 11.375 11.375 12.5503 11.375 14C11.375 15.4497 12.5503 16.625 14 16.625C15.4497 16.625 16.625 15.4497 16.625 14C16.625 12.5503 15.4497 11.375 14 11.375ZM9.625 14C9.625 11.5838 11.5838 9.625 14 9.625C16.4162 9.625 18.375 11.5838 18.375 14C18.375 16.4162 16.4162 18.375 14 18.375C11.5838 18.375 9.625 16.4162 9.625 14Z" fill="#6366F1"/>
<path fill-rule="evenodd" clip-rule="evenodd" d="M9.05183 7.81442C9.39336 8.15632 9.39305 8.71034 9.05115 9.05186C8.41288 9.68943 7.90471 10.4451 7.55498 11.2767L7.55373 11.2797L7.55372 11.2797C7.18816 12.14 6.99976 13.0652 6.99976 14C6.99976 14.9348 7.18816 15.86 7.55372 16.7203L7.55498 16.7233C7.90471 17.5549 8.41288 18.3105 9.05115 18.9481C9.39305 19.2896 9.39336 19.8437 9.05183 20.1856C8.71031 20.5274 8.1563 20.5278 7.8144 20.1862C7.01593 19.3886 6.38015 18.4434 5.94245 17.4032C5.48534 16.3268 5.24976 15.1694 5.24976 14C5.24976 12.8306 5.48534 11.6732 5.94245 10.5968C6.38015 9.55656 7.01593 8.61133 7.8144 7.81374C8.1563 7.47222 8.71031 7.47253 9.05183 7.81442Z" fill="#6366F1"/>
<path fill-rule="evenodd" clip-rule="evenodd" d="M18.9481 7.81442C19.2896 7.47253 19.8436 7.47222 20.1855 7.81374C20.984 8.61133 21.6198 9.55655 22.0575 10.5968C22.5146 11.6732 22.7502 12.8306 22.7502 14C22.7502 15.1694 22.5146 16.3268 22.0575 17.4032C21.6197 18.4434 20.984 19.3887 20.1855 20.1862C19.8436 20.5278 19.2896 20.5274 18.9481 20.1856C18.6066 19.8437 18.6069 19.2896 18.9488 18.9481C19.587 18.3105 20.0952 17.5549 20.4449 16.7233L20.4462 16.7203C20.8118 15.86 21.0002 14.9348 21.0002 14C21.0002 13.0652 20.8118 12.14 20.4462 11.2797L20.4449 11.2767L20.4449 11.2767C20.0952 10.4451 19.587 9.68943 18.9488 9.05186C18.6069 8.71034 18.6066 8.15632 18.9481 7.81442Z" fill="#6366F1"/>
<path fill-rule="evenodd" clip-rule="evenodd" d="M5.95573 4.71821C6.29776 5.0596 6.29827 5.61362 5.95687 5.95564C4.92031 6.99412 4.09256 8.22177 3.51848 9.57207C2.92877 10.9738 2.625 12.4792 2.625 14C2.625 15.5207 2.92877 17.0261 3.51846 18.4279C4.09254 19.7782 4.9203 21.0059 5.95687 22.0443C6.29827 22.3864 6.29776 22.9404 5.95573 23.2818C5.61371 23.6232 5.05969 23.6227 4.7183 23.2806C3.52321 22.0834 2.56896 20.6679 1.90729 19.111L1.90609 19.1082L1.9061 19.1082C1.22556 17.4911 0.875 15.7544 0.875 14C0.875 12.2456 1.22556 10.5089 1.9061 8.89183L1.90729 8.889L1.90729 8.889C2.56896 7.33211 3.52321 5.91663 4.7183 4.71934C5.05969 4.37732 5.61371 4.37681 5.95573 4.71821Z" fill="#6366F1"/>
<path fill-rule="evenodd" clip-rule="evenodd" d="M22.0444 4.71821C22.3865 4.37681 22.9405 4.37732 23.2819 4.71934C24.477 5.91663 25.4312 7.33211 26.0929 8.889L26.0941 8.89183L26.0941 8.89183C26.7746 10.5089 27.1252 12.2456 27.1252 14C27.1252 15.7544 26.7746 17.4911 26.0941 19.1082L26.0929 19.111C25.4312 20.6679 24.477 22.0834 23.2819 23.2806C22.9405 23.6227 22.3865 23.6232 22.0444 23.2818C21.7024 22.9404 21.7019 22.3864 22.0433 22.0443C23.0799 21.0059 23.9076 19.7782 24.4817 18.4279C25.0714 17.0261 25.3752 15.5207 25.3752 14C25.3752 12.4792 25.0714 10.9738 24.4817 9.57207C23.9076 8.22177 23.0799 6.99412 22.0433 5.95564C21.7019 5.61362 21.7024 5.0596 22.0444 4.71821Z" fill="#6366F1"/>
</svg>
