<svg width="28" height="28" viewBox="0 0 28 28" fill="none" xmlns="http://www.w3.org/2000/svg">
<path fill-rule="evenodd" clip-rule="evenodd" d="M14 4.375C8.68426 4.375 4.375 8.68426 4.375 14C4.375 19.3157 8.68426 23.625 14 23.625C19.3157 23.625 23.625 19.3157 23.625 14C23.625 8.68426 19.3157 4.375 14 4.375ZM2.625 14C2.625 7.71776 7.71776 2.625 14 2.625C20.2822 2.625 25.375 7.71776 25.375 14C25.375 20.2822 20.2822 25.375 14 25.375C7.71776 25.375 2.625 20.2822 2.625 14Z" fill="#6366F1"/>
<path fill-rule="evenodd" clip-rule="evenodd" d="M14.7655 13.6583L17.2588 13.9958C17.5059 14.0251 17.7433 14.1095 17.9535 14.2428L23.8865 17.8922C24.2981 18.1454 24.4265 18.6843 24.1734 19.096C23.9202 19.5076 23.3812 19.636 22.9696 19.3828L17.0331 15.7312L14.5375 15.3934L14.5365 15.3957L13.038 18.7535L13.0366 18.7566L15.0956 20.9799C15.2792 21.1817 15.4137 21.4232 15.4887 21.6856C15.5637 21.948 15.577 22.2241 15.5277 22.4925L15.5257 22.5035L15.0991 24.6691C15.0057 25.1433 14.5456 25.4519 14.0715 25.3585C13.5973 25.2651 13.2887 24.8051 13.3821 24.3309L13.8067 22.1748C13.8071 22.172 13.8068 22.1691 13.806 22.1664C13.8052 22.1635 13.8038 22.1608 13.8019 22.1584L11.7476 19.9403C11.5159 19.6879 11.3633 19.373 11.3088 19.0347C11.2545 18.697 11.3003 18.3509 11.4405 18.039L12.9351 14.6898C13.084 14.3419 13.343 14.0523 13.6725 13.8657C14.004 13.678 14.3883 13.6051 14.7655 13.6583Z" fill="#6366F1"/>
<path fill-rule="evenodd" clip-rule="evenodd" d="M7.45118 5.27585C7.89601 5.46469 8.10353 5.97838 7.91469 6.42321L6.93263 8.7365L6.93301 8.73752L8.19083 12.0844L8.19491 12.0956L10.5263 12.5968C10.7872 12.6505 11.0322 12.7638 11.242 12.9279C11.4528 13.0927 11.6225 13.3043 11.7376 13.5458C11.738 13.5466 11.7384 13.5474 11.7388 13.5482L12.146 14.3948C12.1477 14.3975 12.1501 14.3998 12.1528 14.4015C12.1557 14.4033 12.159 14.4044 12.1624 14.4047H13.628C14.1113 14.4047 14.503 14.7965 14.503 15.2797C14.503 15.763 14.1113 16.1547 13.628 16.1547H12.1514L12.1388 16.1546C11.8155 16.15 11.4995 16.0569 11.2253 15.8855C10.951 15.7141 10.7289 15.4709 10.583 15.1823L10.5754 15.1668L10.1626 14.3086L7.82328 13.8057C7.82311 13.8057 7.82294 13.8056 7.82278 13.8056C7.53185 13.7433 7.26176 13.6075 7.03834 13.411C6.81744 13.2168 6.64947 12.9697 6.55006 12.693L5.29528 9.35422C5.2952 9.35401 5.29512 9.3538 5.29504 9.35359C5.13785 8.93648 5.14575 8.47509 5.31715 8.06359L5.31944 8.0581L5.31946 8.0581L6.30383 5.73935C6.49267 5.29453 7.00636 5.08701 7.45118 5.27585Z" fill="#6366F1"/>
<path fill-rule="evenodd" clip-rule="evenodd" d="M16.2559 3.0735C16.6787 2.83945 17.2112 2.99246 17.4453 3.41525L18.4657 5.25859C18.6523 5.60197 18.7195 5.9977 18.6565 6.38342C18.5935 6.76914 18.404 7.12295 18.1178 7.38912L18.1084 7.3977L15.1736 10.0489C15.0725 10.1438 14.9599 10.2257 14.8384 10.2926C14.8382 10.2928 14.8379 10.2929 14.8376 10.2931L13.4937 11.036L13.4805 11.0432C13.2329 11.1746 12.9583 11.2468 12.6782 11.2543C12.6704 11.2545 12.6625 11.2547 12.6547 11.2547H10.3181C10.3161 11.2547 10.3142 11.2554 10.3126 11.2565C10.311 11.2575 10.3097 11.259 10.3088 11.2607L9.40326 13.41C9.21563 13.8553 8.70251 14.0643 8.25717 13.8766C7.81184 13.689 7.60292 13.1759 7.79055 12.7305L8.70087 10.5699C8.83626 10.2551 9.06062 9.98657 9.34639 9.79735C9.63215 9.60812 9.96692 9.50641 10.3096 9.50466L10.3141 9.50464L12.6361 9.50465C12.6435 9.5039 12.6507 9.50191 12.6574 9.49875L13.9839 8.7654C13.987 8.76255 13.9901 8.75972 13.9932 8.75692L16.9269 6.10676C16.9282 6.10525 16.929 6.10341 16.9293 6.10144C16.9297 6.09926 16.9294 6.09703 16.9285 6.09505L15.9142 4.2628C15.6801 3.84001 15.8332 3.30754 16.2559 3.0735Z" fill="#6366F1"/>
</svg>
