<svg width="28" height="28" viewBox="0 0 28 28" fill="none" xmlns="http://www.w3.org/2000/svg">
<path fill-rule="evenodd" clip-rule="evenodd" d="M14.5902 4.41599C12.2528 4.26951 9.9424 4.98122 8.09262 6.41751C6.24283 7.85379 4.98091 9.91588 4.54376 12.2166C4.10661 14.5174 4.52429 16.8986 5.71839 18.9133C5.84067 19.1196 5.87292 19.367 5.80758 19.5978L4.78278 23.2173L8.40231 22.1925L8.64068 23.0344L9.08682 22.2817C11.1015 23.4758 13.4827 23.8935 15.7834 23.4563C18.0842 23.0192 20.1463 21.7572 21.5826 19.9075C23.0189 18.0577 23.7306 15.7472 23.5841 13.4099C23.4376 11.0726 22.443 8.86906 20.787 7.21306C19.131 5.55707 16.9275 4.56247 14.5902 4.41599ZM8.52615 23.9762C10.8349 25.2419 13.5157 25.6685 16.1101 25.1756C18.8297 24.6588 21.2671 23.1672 22.9648 20.9807C24.6625 18.7942 25.5038 16.0632 25.3307 13.3004C25.1575 10.5376 23.9819 7.93305 22.0245 5.97563C20.067 4.0182 17.4624 2.84256 14.6996 2.66942C11.9368 2.49628 9.20585 3.33753 7.01936 5.03526C4.83286 6.73298 3.34124 9.17042 2.82452 11.89C2.33158 14.4843 2.75819 17.1652 4.02386 19.4739L3.0965 22.7493C3.01011 23.0475 3.00511 23.3634 3.08206 23.6642C3.15937 23.9664 3.31657 24.2423 3.53717 24.4629C3.75777 24.6835 4.03366 24.8407 4.3359 24.918C4.63672 24.995 4.95264 24.99 5.25083 24.9036L8.52615 23.9762Z" fill="#6366F1"/>
<path fill-rule="evenodd" clip-rule="evenodd" d="M9.625 12.25C9.625 11.7668 10.0168 11.375 10.5 11.375H17.5C17.9832 11.375 18.375 11.7668 18.375 12.25C18.375 12.7332 17.9832 13.125 17.5 13.125H10.5C10.0168 13.125 9.625 12.7332 9.625 12.25Z" fill="#6366F1"/>
<path fill-rule="evenodd" clip-rule="evenodd" d="M9.625 15.75C9.625 15.2668 10.0168 14.875 10.5 14.875H17.5C17.9832 14.875 18.375 15.2668 18.375 15.75C18.375 16.2332 17.9832 16.625 17.5 16.625H10.5C10.0168 16.625 9.625 16.2332 9.625 15.75Z" fill="#6366F1"/>
</svg>
