<svg width="24" height="24" viewBox="0 0 24 24" fill="none" xmlns="http://www.w3.org/2000/svg">
<path fill-rule="evenodd" clip-rule="evenodd" d="M2.86009 9.1363L2.86411 9.13078C2.86821 9.12518 2.87514 9.11578 2.88485 9.10283C2.90427 9.07694 2.93479 9.03691 2.97603 8.98475C3.05857 8.88037 3.18375 8.72787 3.34857 8.54326C3.679 8.17318 4.16452 7.6789 4.78108 7.18565C6.02363 6.19161 7.73656 5.25 9.75006 5.25C11.9757 5.25 13.5403 6.09658 14.5504 7.32104C15.2043 8.11356 15.644 9.08745 15.8657 10.1371C14.9076 9.89637 13.8662 9.75 12.7501 9.75C7.9914 9.75 5.33671 12.168 4.88526 14.8767C4.66455 16.201 4.99275 17.5503 5.84577 18.5739C6.70641 19.6067 8.05206 20.25 9.75006 20.25C14.6706 20.25 17.3072 16.2244 17.52 12.2974C18.2461 12.6242 18.895 12.998 19.459 13.374C20.2609 13.9086 20.884 14.4429 21.3046 14.8413C21.5146 15.0403 21.6732 15.2046 21.7776 15.317C21.8298 15.3732 21.8683 15.4163 21.8928 15.4442C21.9051 15.4582 21.9138 15.4683 21.919 15.4744L21.9239 15.4801C21.9239 15.4801 21.9239 15.4802 21.9239 15.4801C21.924 15.4802 21.9245 15.4809 21.9246 15.481C22.1899 15.7984 22.6623 15.8411 22.9802 15.5762C23.2984 15.311 23.3414 14.8381 23.0762 14.5199L22.5001 15C23.0762 14.5199 23.0764 14.5201 23.0762 14.5199L23.0753 14.5188L23.0741 14.5173L23.0705 14.513L23.0592 14.4998C23.0498 14.4888 23.0368 14.4737 23.0201 14.4547C22.9868 14.4167 22.9389 14.3632 22.8768 14.2963C22.7527 14.1626 22.5715 13.9753 22.3362 13.7524C21.8661 13.3071 21.1767 12.7164 20.2911 12.126C19.5048 11.6018 18.5579 11.074 17.468 10.6494C17.2836 9.0913 16.71 7.58162 15.7075 6.36646C14.3974 4.77842 12.3994 3.75 9.75006 3.75C7.26356 3.75 5.22648 4.90839 3.84404 6.01435C3.14809 6.5711 2.60237 7.12682 2.22967 7.54424C2.04293 7.75338 1.89857 7.929 1.79948 8.05431C1.7499 8.117 1.71157 8.1672 1.68485 8.20283C1.67148 8.22065 1.66102 8.23483 1.65349 8.24512L1.6444 8.25761L1.64152 8.26161L1.6405 8.26303C1.64033 8.26328 1.63976 8.26407 2.25006 8.7L1.63976 8.26407C1.399 8.60113 1.47707 9.06954 1.81413 9.3103C2.15106 9.55097 2.61925 9.47305 2.86009 9.1363ZM16.0341 11.7398C15.0408 11.4396 13.9417 11.25 12.7501 11.25C8.50872 11.25 6.66341 13.332 6.36485 15.1233C6.21057 16.049 6.44487 16.9497 6.9981 17.6136C7.5437 18.2683 8.44806 18.75 9.75006 18.75C13.713 18.75 15.9444 15.4684 16.0315 11.9813C16.0336 11.9007 16.0344 11.8201 16.0341 11.7398Z" fill="#111827"/>
</svg>
