<svg width="24" height="24" viewBox="0 0 24 24" fill="none" xmlns="http://www.w3.org/2000/svg">
<path fill-rule="evenodd" clip-rule="evenodd" d="M3 6.375C3 5.96079 3.33579 5.625 3.75 5.625H20.25C20.6642 5.625 21 5.96079 21 6.375C21 6.78921 20.6642 7.125 20.25 7.125H3.75C3.33579 7.125 3 6.78921 3 6.375Z" fill="#6366F1"/>
<path fill-rule="evenodd" clip-rule="evenodd" d="M7.5 10.125C7.5 9.71079 7.83579 9.375 8.25 9.375H20.25C20.6642 9.375 21 9.71079 21 10.125C21 10.5392 20.6642 10.875 20.25 10.875H8.25C7.83579 10.875 7.5 10.5392 7.5 10.125Z" fill="#6366F1"/>
<path fill-rule="evenodd" clip-rule="evenodd" d="M3 13.875C3 13.4608 3.33579 13.125 3.75 13.125H20.25C20.6642 13.125 21 13.4608 21 13.875C21 14.2892 20.6642 14.625 20.25 14.625H3.75C3.33579 14.625 3 14.2892 3 13.875Z" fill="#6366F1"/>
<path fill-rule="evenodd" clip-rule="evenodd" d="M7.5 17.625C7.5 17.2108 7.83579 16.875 8.25 16.875H20.25C20.6642 16.875 21 17.2108 21 17.625C21 18.0392 20.6642 18.375 20.25 18.375H8.25C7.83579 18.375 7.5 18.0392 7.5 17.625Z" fill="#6366F1"/>
</svg>
