<svg width="24" height="24" viewBox="0 0 24 24" fill="none" xmlns="http://www.w3.org/2000/svg">
<path fill-rule="evenodd" clip-rule="evenodd" d="M3 6.375C3 5.96079 3.33579 5.625 3.75 5.625H20.25C20.6642 5.625 21 5.96079 21 6.375C21 6.78921 20.6642 7.125 20.25 7.125H3.75C3.33579 7.125 3 6.78921 3 6.375Z" fill="#6366F1"/>
<path fill-rule="evenodd" clip-rule="evenodd" d="M3 10.125C3 9.71079 3.33579 9.375 3.75 9.375H15.75C16.1642 9.375 16.5 9.71079 16.5 10.125C16.5 10.5392 16.1642 10.875 15.75 10.875H3.75C3.33579 10.875 3 10.5392 3 10.125Z" fill="#6366F1"/>
<path fill-rule="evenodd" clip-rule="evenodd" d="M3 13.875C3 13.4608 3.33579 13.125 3.75 13.125H20.25C20.6642 13.125 21 13.4608 21 13.875C21 14.2892 20.6642 14.625 20.25 14.625H3.75C3.33579 14.625 3 14.2892 3 13.875Z" fill="#6366F1"/>
<path fill-rule="evenodd" clip-rule="evenodd" d="M3 17.625C3 17.2108 3.33579 16.875 3.75 16.875H15.75C16.1642 16.875 16.5 17.2108 16.5 17.625C16.5 18.0392 16.1642 18.375 15.75 18.375H3.75C3.33579 18.375 3 18.0392 3 17.625Z" fill="#6366F1"/>
</svg>
