<svg width="24" height="24" viewBox="0 0 24 24" fill="none" xmlns="http://www.w3.org/2000/svg">
<path fill-rule="evenodd" clip-rule="evenodd" d="M14.4874 4.53845C14.8803 4.66943 15.0927 5.09417 14.9617 5.48713L10.4617 18.9871C10.3307 19.3801 9.90599 19.5925 9.51303 19.4615C9.12008 19.3305 8.90771 18.9057 9.03869 18.5128L13.5387 5.01279C13.6697 4.61983 14.0944 4.40746 14.4874 4.53845Z" fill="#6B7280"/>
<path fill-rule="evenodd" clip-rule="evenodd" d="M5.25 18.75C5.25 18.3358 5.58579 18 6 18H13.5C13.9142 18 14.25 18.3358 14.25 18.75C14.25 19.1642 13.9142 19.5 13.5 19.5H6C5.58579 19.5 5.25 19.1642 5.25 18.75Z" fill="#6B7280"/>
<path fill-rule="evenodd" clip-rule="evenodd" d="M9.75 5.25C9.75 4.83579 10.0858 4.5 10.5 4.5H18C18.4142 4.5 18.75 4.83579 18.75 5.25C18.75 5.66421 18.4142 6 18 6H10.5C10.0858 6 9.75 5.66421 9.75 5.25Z" fill="#6B7280"/>
</svg>
