<svg width="24" height="24" viewBox="0 0 24 24" fill="none" xmlns="http://www.w3.org/2000/svg">
<path fill-rule="evenodd" clip-rule="evenodd" d="M3 6.375C3 5.96079 3.33579 5.625 3.75 5.625H20.25C20.6642 5.625 21 5.96079 21 6.375C21 6.78921 20.6642 7.125 20.25 7.125H3.75C3.33579 7.125 3 6.78921 3 6.375Z" fill="#6366F1"/>
<path fill-rule="evenodd" clip-rule="evenodd" d="M5.25 10.125C5.25 9.71079 5.58579 9.375 6 9.375H18C18.4142 9.375 18.75 9.71079 18.75 10.125C18.75 10.5392 18.4142 10.875 18 10.875H6C5.58579 10.875 5.25 10.5392 5.25 10.125Z" fill="#6366F1"/>
<path fill-rule="evenodd" clip-rule="evenodd" d="M3 13.875C3 13.4608 3.33579 13.125 3.75 13.125H20.25C20.6642 13.125 21 13.4608 21 13.875C21 14.2892 20.6642 14.625 20.25 14.625H3.75C3.33579 14.625 3 14.2892 3 13.875Z" fill="#6366F1"/>
<path fill-rule="evenodd" clip-rule="evenodd" d="M5.25 17.625C5.25 17.2108 5.58579 16.875 6 16.875H18C18.4142 16.875 18.75 17.2108 18.75 17.625C18.75 18.0392 18.4142 18.375 18 18.375H6C5.58579 18.375 5.25 18.0392 5.25 17.625Z" fill="#6366F1"/>
</svg>
