<svg width="24" height="24" viewBox="0 0 24 24" fill="none" xmlns="http://www.w3.org/2000/svg">
<path fill-rule="evenodd" clip-rule="evenodd" d="M3 20.25C3 19.8358 3.33579 19.5 3.75 19.5H20.25C20.6642 19.5 21 19.8358 21 20.25C21 20.6642 20.6642 21 20.25 21H3.75C3.33579 21 3 20.6642 3 20.25Z" fill="#6366F1"/>
<path fill-rule="evenodd" clip-rule="evenodd" d="M6 4.5C6.41421 4.5 6.75 4.83579 6.75 5.25V11.25C6.75 12.6424 7.30312 13.9777 8.28769 14.9623C9.27225 15.9469 10.6076 16.5 12 16.5C13.3924 16.5 14.7277 15.9469 15.7123 14.9623C16.6969 13.9777 17.25 12.6424 17.25 11.25V5.25C17.25 4.83579 17.5858 4.5 18 4.5C18.4142 4.5 18.75 4.83579 18.75 5.25V11.25C18.75 13.0402 18.0388 14.7571 16.773 16.023C15.5071 17.2888 13.7902 18 12 18C10.2098 18 8.4929 17.2888 7.22703 16.023C5.96116 14.7571 5.25 13.0402 5.25 11.25V5.25C5.25 4.83579 5.58579 4.5 6 4.5Z" fill="#6366F1"/>
</svg>
