<svg width="24" height="24" viewBox="0 0 24 24" fill="none" xmlns="http://www.w3.org/2000/svg">
<path fill-rule="evenodd" clip-rule="evenodd" d="M5.25 4.5C5.25 4.08579 5.58579 3.75 6 3.75H13.125C14.219 3.75 15.2682 4.1846 16.0418 4.95818C16.8154 5.73177 17.25 6.78098 17.25 7.875C17.25 8.96902 16.8154 10.0182 16.0418 10.7918C16.0229 10.8107 16.0039 10.8293 15.9847 10.8478C16.5207 11.0717 17.0133 11.3994 17.432 11.818C18.2759 12.6619 18.75 13.8065 18.75 15C18.75 16.1935 18.2759 17.3381 17.432 18.182C16.5881 19.0259 15.4435 19.5 14.25 19.5H6C5.58579 19.5 5.25 19.1642 5.25 18.75V4.5ZM6.75 12V18H14.25C15.0456 18 15.8087 17.6839 16.3713 17.1213C16.9339 16.5587 17.25 15.7956 17.25 15C17.25 14.2044 16.9339 13.4413 16.3713 12.8787C15.8087 12.3161 15.0456 12 14.25 12H6.75ZM13.125 10.5H6.75V5.25H13.125C13.8212 5.25 14.4889 5.52656 14.9812 6.01884C15.4734 6.51113 15.75 7.17881 15.75 7.875C15.75 8.57119 15.4734 9.23887 14.9812 9.73116C14.4889 10.2234 13.8212 10.5 13.125 10.5Z" fill="#6B7280"/>
</svg>
