<svg width="18" height="18" viewBox="0 0 18 18" fill="none" xmlns="http://www.w3.org/2000/svg">
<path fill-rule="evenodd" clip-rule="evenodd" d="M8.51047 0.202772C8.78083 -0.0675906 9.21917 -0.0675906 9.48953 0.202772L17.7972 8.51045C17.9952 8.70844 18.0544 9.00622 17.9473 9.26491C17.8401 9.52361 17.5877 9.69229 17.3077 9.69229H13.8461V16.6153C13.8461 16.9826 13.7003 17.3347 13.4406 17.5944C13.1809 17.8541 12.8287 18 12.4615 18H5.53847C5.17125 18 4.81907 17.8541 4.5594 17.5944C4.29974 17.3348 4.15386 16.9826 4.15386 16.6153V9.69229H0.692326C0.412315 9.69229 0.159875 9.52361 0.0527189 9.26491C-0.0544369 9.00622 0.00479384 8.70844 0.202792 8.51045L8.51047 0.202772ZM2.3637 8.30767H4.84616C5.22851 8.30767 5.53847 8.61763 5.53847 8.99998V16.6153H12.4615V8.99998C12.4615 8.61763 12.7715 8.30767 13.1538 8.30767H15.6363L9 1.67137L2.3637 8.30767Z" fill="#5B7083"/>
</svg>
