<svg width="18" height="18" viewBox="0 0 18 18" fill="none" xmlns="http://www.w3.org/2000/svg">
<path fill-rule="evenodd" clip-rule="evenodd" d="M16.3694 5.94818C17.3405 6.64773 18 7.73182 18 9C18 10.2682 17.3405 11.3531 16.3694 12.0518C16.5657 13.2316 16.2597 14.472 15.3655 15.3655C14.4695 16.2614 13.23 16.5592 12.0551 16.3677C11.3588 17.3422 10.2649 18 9 18C7.73182 18 6.64527 17.3397 5.94736 16.3669C4.77082 16.5592 3.53045 16.2622 2.63373 15.3655C1.73782 14.4695 1.44 13.2292 1.638 12.0518C0.667636 11.3539 0 10.269 0 9C0 7.731 0.667636 6.64527 1.638 5.94818C1.44 4.77082 1.73782 3.53045 2.63455 2.63455C3.52882 1.73945 4.77 1.43427 5.95391 1.63064C6.64773 0.657818 7.73427 0 9 0C10.2641 0 11.3564 0.657 12.0535 1.63064C13.2333 1.43427 14.472 1.74109 15.3655 2.63455C16.2597 3.528 16.5665 4.76836 16.3694 5.94818ZM12.7481 5.87945C12.8356 5.94187 12.9099 6.02091 12.9668 6.11206C13.0237 6.2032 13.0621 6.30466 13.0798 6.41065C13.0975 6.51664 13.0942 6.62507 13.07 6.72977C13.0458 6.83446 13.0012 6.93336 12.9387 7.02082L8.84782 12.7481C8.77876 12.8448 8.68946 12.9253 8.58613 12.984C8.4828 13.0428 8.36792 13.0782 8.24948 13.0881C8.13105 13.0979 8.01189 13.0818 7.90031 13.0409C7.78873 12.9999 7.68739 12.9352 7.60336 12.8512L5.14882 10.3966C4.99978 10.2423 4.91731 10.0357 4.91918 9.82113C4.92104 9.6066 5.00709 9.40139 5.15878 9.24969C5.31048 9.098 5.51569 9.01195 5.73022 9.01009C5.94474 9.00822 6.15142 9.09069 6.30573 9.23973L8.07709 11.0111L11.6067 6.06927C11.7329 5.89275 11.9241 5.77359 12.1381 5.73799C12.3521 5.70239 12.5716 5.75328 12.7481 5.87945Z" fill="#2393FF"/>
</svg>
