<svg width="18" height="18" viewBox="0 0 18 18" fill="none" xmlns="http://www.w3.org/2000/svg">
<path fill-rule="evenodd" clip-rule="evenodd" d="M2.53125 9.5625C2.53125 9.25184 2.78309 9 3.09375 9H7.03125C7.34191 9 7.59375 9.25184 7.59375 9.5625C7.59375 9.87316 7.34191 10.125 7.03125 10.125H3.65625V14.625C3.65625 14.9357 3.40441 15.1875 3.09375 15.1875C2.78309 15.1875 2.53125 14.9357 2.53125 14.625V9.5625Z" fill="#6B7280"/>
<path fill-rule="evenodd" clip-rule="evenodd" d="M1.40625 14.625C1.40625 14.3143 1.65809 14.0625 1.96875 14.0625H16.0312C16.3419 14.0625 16.5938 14.3143 16.5938 14.625C16.5938 14.9357 16.3419 15.1875 16.0312 15.1875H1.96875C1.65809 15.1875 1.40625 14.9357 1.40625 14.625Z" fill="#6B7280"/>
<path fill-rule="evenodd" clip-rule="evenodd" d="M6.46875 6.1875C6.46875 5.87684 6.72059 5.625 7.03125 5.625H10.9688C11.2794 5.625 11.5312 5.87684 11.5312 6.1875C11.5312 6.49816 11.2794 6.75 10.9688 6.75H7.59375V14.625C7.59375 14.9357 7.34191 15.1875 7.03125 15.1875C6.72059 15.1875 6.46875 14.9357 6.46875 14.625V6.1875Z" fill="#6B7280"/>
<path fill-rule="evenodd" clip-rule="evenodd" d="M10.4062 2.8125C10.4062 2.50184 10.6581 2.25 10.9688 2.25H14.9062C15.2169 2.25 15.4688 2.50184 15.4688 2.8125V14.625C15.4688 14.9357 15.2169 15.1875 14.9062 15.1875H10.9688C10.6581 15.1875 10.4062 14.9357 10.4062 14.625V2.8125ZM11.5312 3.375V14.0625H14.3438V3.375H11.5312Z" fill="#6B7280"/>
</svg>
